<?xml version="1.0" encoding="utf-8"?>
<!-- Generator: Adobe Illustrator 26.5.0, SVG Export Plug-In . SVG Version: 6.00 Build 0)  -->
<svg version="1.1" id="圖層_1" xmlns="http://www.w3.org/2000/svg" xmlns:xlink="http://www.w3.org/1999/xlink" x="0px" y="0px"
	 viewBox="0 0 993.04 409.98" style="enable-background:new 0 0 993.04 409.98;" xml:space="preserve">
<style type="text/css">
	.st0{clip-path:url(#SVGID_00000079462881298640916220000004031722763418810243_);}
	.st1{fill:#FFFFFF;stroke:#1A1A1A;stroke-miterlimit:1;}
	.st2{fill:#FFFFFF;stroke:#1A1A1A;stroke-miterlimit:10;}
	.st3{fill:none;stroke:#1A1A1A;stroke-miterlimit:10;}
	.st4{fill:none;stroke:#1A1A1A;stroke-miterlimit:1;}
	.st5{fill:#1A1A1A;}
	.st6{fill:#1A1A1A;stroke:#1A1A1A;stroke-miterlimit:10;}
	.st7{fill:#FFFFFF;}
	.st8{fill:#191919;}
	.st9{font-family:'851Gkktt';}
	.st10{font-size:14.3532px;}
	.st11{fill:none;stroke:#4E4744;stroke-miterlimit:10;}
	.st12{fill:#4E4744;}
	.st13{font-family:'DFHei-Bd-HK-BF';}
	.st14{font-size:19.0734px;}
	.st15{fill:#1A1A1A;stroke:#FFFFFF;stroke-miterlimit:10;}
	
		.st16{clip-path:url(#SVGID_00000079462881298640916220000004031722763418810243_);fill:#FFFFFF;stroke:#1A1A1A;stroke-width:1.0894;stroke-miterlimit:1;}
</style>
<g>
	<defs>
		<rect id="SVGID_1_" x="0.47" width="992.57" height="409.44"/>
	</defs>
	<clipPath id="SVGID_00000137119716115010553220000010273975927666997146_">
		<use xlink:href="#SVGID_1_"  style="overflow:visible;"/>
	</clipPath>
	<g style="clip-path:url(#SVGID_00000137119716115010553220000010273975927666997146_);">
		<g>
			<polygon class="st1" points="753.89,198.81 743.11,198.81 743.11,185.28 753.89,171.61 			"/>
			<rect x="753.89" y="171.61" class="st2" width="9.04" height="9.04"/>
			<rect x="788.94" y="159.68" class="st3" width="46.72" height="11.62"/>
			<rect x="773.36" y="94.19" class="st1" width="1.66" height="79.4"/>
			<path class="st1" d="M768.59,151.85h-5.74c-0.63,0-1.14-0.51-1.14-1.14V123.8c0-0.63,0.51-1.14,1.14-1.14h5.74
				c0.63,0,1.14,0.51,1.14,1.14v26.91C769.72,151.34,769.21,151.85,768.59,151.85z"/>
			<path class="st1" d="M780.03,151.85h-7c-0.63,0-1.14-0.51-1.14-1.14V123.8c0-0.63,0.51-1.14,1.14-1.14h7
				c0.63,0,1.14,0.51,1.14,1.14v26.91C781.17,151.34,780.66,151.85,780.03,151.85z"/>
			<path class="st1" d="M786.67,151.85h-1.98c-0.63,0-1.14-0.51-1.14-1.14V123.8c0-0.63,0.51-1.14,1.14-1.14h1.98
				c0.63,0,1.14,0.51,1.14,1.14v26.91C787.81,151.34,787.3,151.85,786.67,151.85z"/>
			<polygon class="st1" points="763.19,416.89 740.09,416.89 740.09,196.45 763.19,168.1 			"/>
			<polygon class="st1" points="788.94,408.46 765.83,408.46 765.83,188.02 788.94,159.68 			"/>
			<rect x="763.19" y="167.85" class="st1" width="86.37" height="248.79"/>
			<rect x="763.19" y="179.93" class="st1" width="87.11" height="2.73"/>
			<rect x="763.19" y="203.51" class="st1" width="86.37" height="2.73"/>
			<rect x="763.19" y="221.34" class="st1" width="86.37" height="2.73"/>
			<rect x="763.19" y="244.91" class="st1" width="86.37" height="2.73"/>
			<rect x="763.19" y="262.74" class="st1" width="86.37" height="2.73"/>
			<rect x="763.19" y="286.31" class="st1" width="86.37" height="2.73"/>
			<rect x="763.19" y="304.14" class="st1" width="86.37" height="2.73"/>
			<rect x="763.19" y="327.72" class="st1" width="86.37" height="2.73"/>
			<rect x="763.19" y="345.55" class="st1" width="86.37" height="2.73"/>
			<rect x="763.19" y="369.12" class="st1" width="86.37" height="2.73"/>
			<polygon class="st1" points="757.11,424.52 717.28,424.52 717.28,370.36 757.11,338.05 			"/>
			<polygon class="st1" points="763.19,321.7 763.19,323.87 729.15,352.22 717.28,350.05 751.32,321.7 			"/>
			<rect x="763.19" y="179.93" class="st1" width="4.85" height="238.89"/>
			<rect x="779.64" y="179.93" class="st1" width="4.85" height="238.89"/>
			<rect x="796.1" y="179.93" class="st1" width="4.85" height="238.89"/>
			<rect x="812.55" y="179.93" class="st1" width="4.85" height="238.89"/>
			<rect x="829" y="179.93" class="st1" width="4.85" height="238.89"/>
			<rect x="810.64" y="234.49" class="st1" width="34.05" height="123.64"/>
			<rect x="751.32" y="270.92" class="st1" width="11.87" height="50.78"/>
			<polygon class="st1" points="751.32,270.92 751.32,321.7 717.28,350.05 717.28,300.97 			"/>
			<path class="st4" d="M774.51,151.19c0,0,5.04,16.98,14.17,16.34"/>
			<path class="st4" d="M775.02,151.85c0,0,0.59,14.72,7.25,16"/>
			<path class="st4" d="M774.72,151.85c0,0-6.04,17.28-11.53,16"/>
			<rect x="771.89" y="104.19" class="st1" width="2.3" height="15.15"/>
		</g>
		<g>
			<path class="st4" d="M853.53,236.1c0,0,14.81,14.21,35.74,12.17"/>
			<rect x="880.98" y="248.33" class="st5" width="109.4" height="8.94"/>
			<rect x="884.55" y="159.17" class="st5" width="2.64" height="122.74"/>
			<rect x="967.79" y="165.49" class="st5" width="2.64" height="122.74"/>
			<rect x="910.21" y="159.17" class="st5" width="2.64" height="122.74"/>
			<rect x="984.85" y="159.17" class="st5" width="2.64" height="125.07"/>
			<rect x="850.3" y="257.43" class="st1" width="102.51" height="53.04"/>
			<rect x="850.3" y="248.27" class="st1" width="107.4" height="9.05"/>
			<g>
				<path class="st5" d="M847.96,111.75V113c0,0,2.86,0,2.86,0c0.03,0,0.12,0.71,0.13,0.78c0.04,0.26,0.06,0.53,0.06,0.8
					c0.02,0.79-0.09,1.58-0.25,2.36c-0.24,0.83-0.62,1.55-1.46,1.62c-0.82,0-1.04-0.81-1.56-1.61c-0.37-0.16-0.59-0.08-0.48,0.48
					c0.05,0.26,0.17,0.54,0.27,0.79c0.09,0.24,0.2,0.48,0.34,0.69c0.38,0.57,1.01,0.87,1.68,0.73c0.58-0.12,1.16-0.36,1.6-0.77
					c0.53-0.5,0.72-1.21,0.79-1.91c0.09-0.83,0-1.66-0.11-2.48c-0.04-0.3-0.09-0.59-0.13-0.89c-0.02-0.17-0.25-1.93-0.27-1.93
					C851.43,111.66,847.96,111.75,847.96,111.75z"/>
				
					<rect x="902.5" y="59.74" transform="matrix(0.9414 -0.3373 0.3373 0.9414 29.5032 308.7839)" class="st2" width="1.75" height="19.49"/>
				<path class="st2" d="M912.06,89.54l-2.66,0.95l-6.42-17.91c-0.09-0.24,0.04-0.51,0.28-0.6l1.78-0.64
					c0.24-0.09,0.51,0.04,0.6,0.28L912.06,89.54z"/>
				<rect x="919.69" y="109.41" class="st5" width="27.15" height="1.6"/>
				<rect x="945.64" y="102.22" class="st2" width="0.64" height="7.22"/>
				<rect x="920.25" y="102.22" class="st2" width="0.64" height="7.22"/>
				
					<rect x="932.93" y="93.12" transform="matrix(-1.836970e-16 1 -1 -1.836970e-16 1039.0792 -827.4167)" class="st2" width="0.64" height="25.42"/>
				<rect x="919.69" y="124.81" class="st5" width="27.15" height="1.53"/>
				<rect x="945.64" y="117.59" class="st2" width="0.64" height="7.22"/>
				<rect x="920.25" y="117.59" class="st2" width="0.64" height="7.22"/>
				
					<rect x="932.93" y="108.49" transform="matrix(-1.836970e-16 1 -1 -1.836970e-16 1054.4443 -812.0517)" class="st2" width="0.64" height="25.42"/>
				
					<rect x="930.07" y="93.05" transform="matrix(0.7918 -0.6108 0.6108 0.7918 130.8201 589.7084)" class="st2" width="0.7" height="19.83"/>
				
					<rect x="930.07" y="108.36" transform="matrix(0.7918 -0.6108 0.6108 0.7918 121.4687 592.8961)" class="st2" width="0.7" height="19.83"/>
				<rect x="924.21" y="139.93" class="st5" width="12.19" height="1.53"/>
				
					<rect x="930.07" y="123.48" transform="matrix(0.7918 -0.6108 0.6108 0.7918 112.2334 596.0441)" class="st2" width="0.7" height="19.83"/>
				<rect x="924.21" y="154.42" class="st5" width="12.19" height="1.53"/>
				
					<rect x="930.07" y="137.97" transform="matrix(0.7918 -0.6108 0.6108 0.7918 103.3795 599.0621)" class="st2" width="0.7" height="19.83"/>
				
					<rect x="934.66" y="104.55" transform="matrix(-0.5538 -0.8327 0.8327 -0.5538 1354.6661 961.6768)" class="st2" width="0.7" height="26.63"/>
				<rect x="923.02" y="91.59" class="st5" width="1.7" height="68.67"/>
				<rect x="935.87" y="91.59" class="st5" width="1.7" height="68.67"/>
				<path class="st6" d="M920.76,89.58h-12V76.74c2.49-2.49,3.89-3.89,6.39-6.39h5.61V89.58z"/>
				<path class="st5" d="M954.42,43.12v0.34l-31.97,47l1.18,0.8l17.88-26.29h12.9v24.68h5.56V43.12H954.42z M942.87,62.97L954.42,46
					v16.97H942.87z"/>
				<rect x="848.7" y="9.3" class="st2" width="1.55" height="95.61"/>
				<polygon class="st2" points="859.15,10.69 853.19,12.48 848.19,7.69 854.19,6.12 				"/>
				<polygon class="st2" points="853.19,12.48 853.18,12.48 852.27,13.39 847.32,8.65 848.19,7.69 				"/>
				<polygon class="st2" points="885.54,35.19 884.64,36.13 881.4,39.51 851.72,11.09 857.72,9.52 				"/>
				<polygon class="st2" points="881.4,39.51 880.5,40.45 850.85,12.05 851.72,11.09 				"/>
				<line class="st3" x1="851.72" y1="11.09" x2="850.85" y2="12.05"/>
				<polyline class="st3" points="859.15,10.69 853.19,12.48 853.18,12.48 852.27,13.39 				"/>
				<path class="st5" d="M929.83,87.44l-1.06,1.08l-28.28-27.69l-1.61-0.06c-0.72-0.02-1.3-0.62-1.3-1.34l-0.01-1.46l-24.29-23.78
					l1.02-1.1l24.56,24.04l0.01,2.75l2.91,0.11L929.83,87.44z"/>
				<path class="st2" d="M934.54,82.63l-4.71,4.81l-28.05-27.45l-1.62-0.06c-0.72-0.03-1.29-0.62-1.3-1.34l-0.01-1.46L874.3,33.09
					l4.58-4.95L934.54,82.63z"/>
				<g>
					<path class="st3" d="M901.48,60.94h-2.65c-0.17,0-0.32-0.14-0.32-0.32v-0.2c0-0.17,0.14-0.32,0.32-0.32h2.65
						c0.17,0,0.32,0.14,0.32,0.32v0.2C901.8,60.79,901.66,60.94,901.48,60.94z"/>
					<path class="st7" d="M901.48,60.94h-2.65c-0.17,0-0.32-0.14-0.32-0.32v-0.2c0-0.17,0.14-0.32,0.32-0.32h2.65
						c0.17,0,0.32,0.14,0.32,0.32v0.2C901.8,60.79,901.66,60.94,901.48,60.94z"/>
				</g>
				<rect x="923.56" y="71.2" class="st2" width="29.95" height="14.04"/>
				<rect x="916.75" y="85.24" class="st2" width="36.77" height="4.34"/>
				<rect x="944.74" y="72.99" class="st5" width="5.04" height="5.43"/>
				<path class="st2" d="M923.43,89.58h-12V76.74c2.49-2.49,3.89-3.89,6.39-6.39h5.61V89.58z"/>
				<rect x="934.78" y="82.36" class="st2" width="0.91" height="7.22"/>
				<rect x="899.26" y="82.36" class="st2" width="0.64" height="7.22"/>
				<polyline class="st3" points="873.28,34.19 874.3,33.09 878.88,28.14 				"/>
				<rect x="933.66" y="72.77" class="st5" width="9.7" height="5.64"/>
				<path class="st2" d="M851.12,113.46h-2.82l-2.1-5.05v-2.61c0.73-0.73,1.14-1.14,1.86-1.87h3.29c0.73,0.73,1.14,1.14,1.86,1.87
					v2.61L851.12,113.46z"/>
				<rect x="923.87" y="71.2" class="st5" width="6.34" height="13.85"/>
				<path class="st2" d="M955.38,43.54v0.34l-31.97,47l1.18,0.8l17.88-26.29h12.9v24.68h5.56V43.54H955.38z M943.84,63.39
					l11.54-16.97v16.97H943.84z"/>
				<rect x="899.26" y="89.58" class="st2" width="62.55" height="5.87"/>
				<rect x="899.26" y="89.58" class="st5" width="11.68" height="5.87"/>
				
					<rect x="917.3" y="67.89" transform="matrix(-1.836970e-16 1 -1 -1.836970e-16 1003.5953 -831.6481)" class="st2" width="0.64" height="36.16"/>
				<path class="st2" d="M961.81,89.58h-8.3v-3.72c0-2.29,1.86-4.15,4.15-4.15l0,0c2.29,0,4.15,1.86,4.15,4.15V89.58z"/>
				<rect x="847.96" y="113.91" class="st5" width="3.48" height="0.72"/>
			</g>
			<rect x="880.98" y="159.17" class="st5" width="109.4" height="8.94"/>
			<rect x="880.98" y="204.87" class="st5" width="109.4" height="8.94"/>
			<path class="st4" d="M850.3,171.3c0,0,10.12,107.61,29.78,114.72"/>
			<path class="st4" d="M853.12,247.64c0,0,26.25-20.3,28.84-39.11"/>
			<path class="st4" d="M882.72,210.4c0,0-2.79,25.28-29.61,37.87"/>
			<rect x="883.32" y="240.91" class="st1" width="20.68" height="7.42"/>
		</g>
		<g>
			<rect x="819.14" y="234.49" class="st1" width="34.05" height="123.64"/>
			<rect x="806.14" y="232.19" class="st1" width="51.2" height="4.6"/>
			<rect x="790.2" y="358.23" class="st1" width="73.65" height="50.78"/>
			<rect x="814.69" y="332.29" class="st1" width="24.68" height="9.34"/>
			<path class="st4" d="M839.37,335.75c0,0,1.99,6.34,10.93,6.93"/>
			<path class="st4" d="M839.37,334.35c0,0,7.72,5.27,12.35-1.15"/>
			<rect x="808.28" y="256.87" class="st1" width="48.06" height="2.25"/>
			<rect x="808.28" y="279.82" class="st1" width="48.06" height="2.25"/>
			<rect x="808.28" y="302.77" class="st1" width="48.06" height="2.25"/>
			<rect x="808.28" y="325.71" class="st1" width="48.06" height="2.25"/>
			<rect x="808.28" y="348.66" class="st1" width="48.06" height="2.25"/>
			<rect x="826.47" y="343.75" class="st1" width="25.24" height="14.48"/>
			<rect x="824.77" y="341.62" class="st5" width="27.23" height="2.13"/>
			<g>
				<rect x="822.6" y="240.91" class="st3" width="2.72" height="9.62"/>
				<rect x="828.7" y="240.91" class="st3" width="2.72" height="9.62"/>
				<rect x="834.81" y="240.91" class="st3" width="2.72" height="9.62"/>
				<rect x="840.91" y="240.91" class="st3" width="2.72" height="9.62"/>
				<rect x="847.02" y="240.91" class="st3" width="2.72" height="9.62"/>
			</g>
			<g>
				<rect x="822.6" y="262.74" class="st3" width="2.72" height="9.62"/>
				<rect x="828.7" y="262.74" class="st3" width="2.72" height="9.62"/>
				<rect x="834.81" y="262.74" class="st3" width="2.72" height="9.62"/>
				<rect x="840.91" y="262.74" class="st3" width="2.72" height="9.62"/>
				<rect x="847.02" y="262.74" class="st3" width="2.72" height="9.62"/>
			</g>
			<g>
				<rect x="822.6" y="286.63" class="st3" width="2.72" height="9.62"/>
				<rect x="828.7" y="286.63" class="st3" width="2.72" height="9.62"/>
				<rect x="834.81" y="286.63" class="st3" width="2.72" height="9.62"/>
				<rect x="840.91" y="286.63" class="st3" width="2.72" height="9.62"/>
				<rect x="847.02" y="286.63" class="st3" width="2.72" height="9.62"/>
			</g>
			<g>
				<rect x="822.6" y="310.51" class="st3" width="2.72" height="9.62"/>
				<rect x="828.7" y="310.51" class="st3" width="2.72" height="9.62"/>
				<rect x="834.81" y="310.51" class="st3" width="2.72" height="9.62"/>
				<rect x="840.91" y="310.51" class="st3" width="2.72" height="9.62"/>
				<rect x="847.02" y="310.51" class="st3" width="2.72" height="9.62"/>
			</g>
			<rect x="807.45" y="314.87" class="st1" width="10.2" height="10.52"/>
			<path class="st4" d="M808.68,325.39c0,0,2.19,24.92-18.48,32.84"/>
		</g>
		<g>
			<path class="st1" d="M876.94,385.04H394.51c-3.22,0-5.83,2.61-5.83,5.83v24.89h17.11v-15.69c0-2.58,2.09-4.67,4.67-4.67h466.48
				V385.04z"/>
			<rect x="631.15" y="383.8" class="st1" width="2.64" height="13.45"/>
			<path class="st4" d="M851.71,378.15c0,0-80.1,4.17-142.29,23.57s-208.49,7.29-208.49,7.29"/>
			<path class="st4" d="M542.3,406.83c0,0,129.41,3.09,215.88-17.03"/>
			<rect x="371.77" y="376" class="st2" width="519.22" height="3.27"/>
			<rect x="640.68" y="375.01" class="st1" width="1.87" height="5.26"/>
		</g>
		<g>
			<path class="st3" d="M449.87,243.86c-0.51-0.89-20.6,8.08-51.57,2.12"/>
			<rect x="362.38" y="223.01" class="st2" width="92.94" height="14.47"/>
			<polygon class="st2" points="338.04,411.83 323.06,411.83 323.06,194.66 338.04,183.52 			"/>
			<rect x="362.38" y="231.04" class="st2" width="92.94" height="3.15"/>
			<rect x="362.38" y="209.55" class="st2" width="92.94" height="3.49"/>
			<rect x="453.84" y="210.72" class="st2" width="8.28" height="217.24"/>
			<path class="st2" d="M464.94,249.83h-13.93c-2.83,0-5.13-2.3-5.13-5.13v-39.67c0-2.83,2.3-5.13,5.13-5.13h13.93
				c2.83,0,5.13,2.3,5.13,5.13v39.67C470.07,247.53,467.78,249.83,464.94,249.83z"/>
			<rect x="338.04" y="183.52" class="st2" width="62.66" height="228.74"/>
			<polygon class="st5" points="355.75,233.09 355.75,335.26 338.04,353.9 338.04,233.09 			"/>
			<polygon class="st5" points="338.04,362.4 355.75,343.76 355.75,355.69 338.04,374.33 			"/>
			<rect x="336.68" y="199.89" class="st5" width="54.98" height="7.02"/>
			<rect x="325.09" y="217.48" class="st2" width="5.09" height="77.87"/>
			<polygon class="st6" points="325.09,295.35 311.23,295.66 311.23,222.57 325.09,217.48 			"/>
			<text transform="matrix(0 -1 1 0 459.7703 228.2536)" class="st8 st9 st10">16</text>
			<rect x="445.88" y="242.97" class="st5" width="24.2" height="1.77"/>
			<rect x="445.88" y="231.73" class="st5" width="24.2" height="1.77"/>
			<rect x="463.66" y="206.05" class="st5" width="2.57" height="20.94"/>
			<rect x="364.17" y="233.5" class="st2" width="30.04" height="133.9"/>
			<g>
				<path class="st11" d="M376.84,341.96l-8.74,15.14c1.45,2.5,1.81,3.13,3.25,5.63h17.48c1.45-2.5,1.81-3.13,3.25-5.63l-8.74-15.14
					C380.45,341.96,379.73,341.96,376.84,341.96z"/>
				<text transform="matrix(1 0 0 1 375.3201 359.0059)" class="st12 st13 st14">!</text>
			</g>
		</g>
		<g>
			<rect x="123.83" y="319.3" class="st1" width="78.64" height="94.93"/>
			<polygon class="st1" points="123.83,414.23 112.09,414.23 112.09,327.6 123.83,319.3 			"/>
			<rect x="128.17" y="319.57" class="st2" width="6.15" height="91.85"/>
			<rect x="144.14" y="319.57" class="st2" width="6.15" height="91.85"/>
			<rect x="160.11" y="319.57" class="st2" width="6.15" height="91.85"/>
			<rect x="176.08" y="319.57" class="st2" width="6.15" height="91.85"/>
			<rect x="192.05" y="319.57" class="st2" width="6.15" height="91.85"/>
			<rect x="123.83" y="336.59" class="st1" width="78.64" height="4.89"/>
			<rect x="123.83" y="358.59" class="st1" width="78.64" height="4.89"/>
			<rect x="123.83" y="380.6" class="st1" width="78.64" height="4.89"/>
			<rect x="123.83" y="402.61" class="st1" width="78.64" height="4.89"/>
			<rect x="123.83" y="319.3" class="st2" width="78.64" height="6.97"/>
		</g>
		<g>
			<rect x="880.09" y="286.01" class="st1" width="110" height="121.83"/>
			<line class="st3" x1="952.42" y1="286.01" x2="952.42" y2="407.17"/>
			<line class="st3" x1="975.67" y1="286.01" x2="975.67" y2="407.17"/>
			<line class="st3" x1="877.95" y1="361.64" x2="990.09" y2="361.64"/>
			<line class="st3" x1="877.95" y1="399.17" x2="990.09" y2="399.17"/>
			<g>
				
					<rect x="857.45" y="355.01" transform="matrix(-0.7071 0.7071 -0.7071 -0.7071 1880.123 -65.8652)" class="st15" width="192.51" height="2.9"/>
				
					<rect x="1010.81" y="289.4" transform="matrix(-0.7071 0.7071 -0.7071 -0.7071 1944.8458 -222.1199)" class="st2" width="15.23" height="4.67"/>
				
					<rect x="878.02" y="422.18" transform="matrix(-0.7071 0.7071 -0.7071 -0.7071 1812.0602 98.4529)" class="st2" width="15.23" height="4.67"/>
			</g>
			<path class="st5" d="M957.22,353.42l-0.49-0.49c-0.39-0.39-1.03-0.39-1.43,0l-2.22,2.22c-0.58,0.58-1.52,0.58-2.1,0l-2.22-2.22
				c-0.39-0.39-1.03-0.39-1.43,0l-0.49,0.49c-0.39,0.39-0.39,1.03,0,1.43l2.22,2.22c0.58,0.58,0.58,1.52,0,2.1l-2.22,2.22
				c-0.39,0.39-0.39,1.03,0,1.43l0.49,0.49c0.39,0.39,1.03,0.39,1.43,0l2.22-2.22c0.58-0.58,1.52-0.58,2.1,0l2.22,2.22
				c0.39,0.39,1.03,0.39,1.43,0l0.49-0.49c0.39-0.39,0.39-1.03,0-1.43l-2.22-2.22c-0.58-0.58-0.58-1.52,0-2.1l2.22-2.22
				C957.62,354.45,957.62,353.82,957.22,353.42z"/>
			<rect x="877.95" y="281.91" class="st5" width="112.13" height="4.66"/>
			<line class="st3" x1="905.91" y1="286.01" x2="905.91" y2="407.17"/>
			<line class="st3" x1="929.17" y1="286.01" x2="929.17" y2="407.17"/>
			<line class="st3" x1="877.95" y1="324.1" x2="990.09" y2="324.1"/>
			<g>
				
					<rect x="854.11" y="355.01" transform="matrix(0.7071 0.7071 -0.7071 0.7071 530.4055 -567.605)" class="st15" width="192.51" height="2.9"/>
				
					<rect x="878.02" y="289.4" transform="matrix(0.7071 0.7071 -0.7071 0.7071 465.6827 -540.796)" class="st2" width="15.23" height="4.67"/>
				
					<rect x="1010.81" y="422.18" transform="matrix(0.7071 0.7071 -0.7071 0.7071 598.4683 -595.7975)" class="st2" width="15.23" height="4.67"/>
			</g>
			<rect x="876.94" y="286.01" class="st2" width="6.3" height="125.92"/>
			<polygon class="st5" points="877.95,281.91 877.95,285.48 851.06,306.34 851.06,302.77 			"/>
			<g>
				<polygon class="st7" points="851.56,306.58 877.45,286.5 877.45,500.91 851.56,521 				"/>
				<path class="st5" d="M876.95,287.52v213.15l-24.89,19.31V306.83L876.95,287.52 M877.95,285.48l-26.89,20.86v215.68l26.89-20.86
					V285.48L877.95,285.48z"/>
			</g>
		</g>
		<g>
			<g>
				<polygon class="st2" points="213.77,415.76 195.12,415.76 195.12,253.98 213.77,239.44 				"/>
				<rect x="213.77" y="239.44" class="st2" width="87.17" height="176.32"/>
				<rect x="219.57" y="257.85" class="st2" width="3.34" height="153.98"/>
				<rect x="231.53" y="257.85" class="st2" width="3.34" height="153.98"/>
				<rect x="243.48" y="257.85" class="st2" width="3.34" height="153.98"/>
				<rect x="255.44" y="257.85" class="st2" width="3.34" height="153.98"/>
				<rect x="267.39" y="257.85" class="st2" width="3.34" height="153.98"/>
				<rect x="279.35" y="257.85" class="st2" width="3.34" height="153.98"/>
				<rect x="291.3" y="257.85" class="st2" width="3.34" height="153.98"/>
				<g>
					<rect x="213.77" y="253.13" class="st2" width="87.17" height="9.45"/>
					<rect x="213.77" y="286.21" class="st2" width="87.17" height="9.45"/>
					<rect x="213.77" y="319.3" class="st2" width="87.17" height="9.45"/>
					<rect x="213.77" y="352.39" class="st2" width="87.17" height="9.45"/>
					<rect x="213.77" y="385.48" class="st2" width="87.17" height="9.45"/>
				</g>
				<rect x="213.83" y="247.64" class="st2" width="87.11" height="5.49"/>
			</g>
			<rect x="179.4" y="387.76" class="st1" width="26.21" height="19.4"/>
			<polygon class="st1" points="179.23,407.17 170.55,407.17 170.55,391.85 179.23,387.76 			"/>
		</g>
		<g>
			<rect x="641.51" y="151.19" class="st5" width="1.7" height="67.55"/>
			<polygon class="st1" points="641.96,324.34 634.52,324.34 634.52,296.04 641.96,292.24 			"/>
			<rect x="641.96" y="292.91" class="st1" width="86.21" height="26.74"/>
			<rect x="640.98" y="207.68" class="st1" width="2.77" height="98.74"/>
			<rect x="726.38" y="270.92" class="st1" width="15.84" height="10.22"/>
			<path class="st4" d="M727.32,280.36c0,0,0.34,13.11-24.68,20.6"/>
			<path class="st4" d="M704.68,300.95c0,0,16.68-2.03,30.64-19.82"/>
			<path class="st5" d="M643.83,154.53h-2.94v-9.09c0-0.81,0.66-1.47,1.47-1.47l0,0c0.81,0,1.47,0.66,1.47,1.47V154.53z"/>
			
				<ellipse transform="matrix(0.1291 -0.9916 0.9916 0.1291 377.9224 786.4681)" class="st5" cx="636.72" cy="178.07" rx="10.81" ry="6.76"/>
			
				<ellipse transform="matrix(0.9813 -0.1926 0.1926 0.9813 -25.1217 128.221)" class="st5" cx="647.06" cy="193.35" rx="6.76" ry="10.81"/>
			<path class="st3" d="M643.74,198.57c0,0,0.43,19.84,14.55,21.88"/>
			<path class="st3" d="M659.08,211c-13.43,4.94-17.21-13.63-17.21-13.63"/>
			<g>
				<g>
					<polygon class="st1" points="537.54,406.94 519.11,406.94 519.11,329.98 537.54,317.21 					"/>
					<rect x="537.54" y="317.21" class="st1" width="75" height="89.73"/>
					<path class="st4" d="M465.96,248.53c0,0,76.21,92.73,115.91,101.52"/>
					<path class="st4" d="M463.91,248.53c0,0,78.38,103.07,112.6,105.09"/>
					<rect x="610.72" y="300.95" class="st1" width="111.44" height="111.44"/>
					<polygon class="st1" points="610.72,549.74 594.04,549.74 594.04,329.3 610.72,300.95 					"/>
					<rect x="610.4" y="313.72" class="st1" width="106.87" height="5.62"/>
					<rect x="610.4" y="341.81" class="st1" width="106.87" height="5.62"/>
					<rect x="610.4" y="369.9" class="st1" width="106.87" height="5.62"/>
					<rect x="618.26" y="319.34" class="st1" width="3.32" height="60.17"/>
					<rect x="632.55" y="319.34" class="st1" width="3.32" height="60.17"/>
					<rect x="646.85" y="319.34" class="st1" width="3.32" height="60.17"/>
					<rect x="661.15" y="319.34" class="st1" width="3.32" height="60.17"/>
					<rect x="675.45" y="319.34" class="st1" width="3.32" height="60.17"/>
					<rect x="689.74" y="319.34" class="st1" width="3.32" height="60.17"/>
					<rect x="704.04" y="319.34" class="st1" width="3.32" height="60.17"/>
					<g>
						<polygon class="st1" points="702.91,367.93 700.1,370.74 700.1,380.96 702.91,378.15 						"/>
						<polygon class="st1" points="718.75,378.15 715.94,380.96 700.1,380.96 702.91,378.15 						"/>
					</g>
					<rect x="591.62" y="334.98" class="st1" width="8.17" height="81.07"/>
					<rect x="576.51" y="341.23" class="st1" width="8.04" height="12.38"/>
					<rect x="587.06" y="341.23" class="st1" width="8.04" height="12.38"/>
					<rect x="570.13" y="353.15" class="st1" width="40.6" height="2.49"/>
					<path class="st4" d="M726.54,351.52c0,0,1.74,16.13-23.45,16.9"/>
					<rect x="702.91" y="367.93" class="st1" width="15.84" height="10.22"/>
					<rect x="521.23" y="346.19" class="st1" width="13.15" height="2.04"/>
					<polygon class="st1" points="520.38,352.57 534.38,348.23 521.23,348.23 511.77,352.57 					"/>
					<polygon class="st5" points="527.95,356.55 526.76,356.85 526.74,356.82 520.64,348.53 521.56,347.85 527.92,356.51 					"/>
					<polygon class="st5" points="519.5,358.74 518.32,359.05 518.3,359.03 513.02,351.84 513.94,351.17 519.48,358.71 					"/>
				</g>
				<polygon class="st1" points="521.23,346.19 511.77,350.53 511.77,352.57 521.23,348.23 				"/>
			</g>
		</g>
	</g>
	
		<rect x="0.47" y="379.27" style="clip-path:url(#SVGID_00000137119716115010553220000010273975927666997146_);fill:#FFFFFF;stroke:#1A1A1A;stroke-width:1.0894;stroke-miterlimit:1;" width="992.57" height="30.17"/>
</g>
<rect x="850.47" y="288.28" class="st1" width="20.68" height="7.42"/>
</svg>
