<?xml version="1.0" encoding="utf-8"?>
<!-- Generator: Adobe Illustrator 26.5.0, SVG Export Plug-In . SVG Version: 6.00 Build 0)  -->
<svg version="1.1" id="圖層_1" xmlns="http://www.w3.org/2000/svg" xmlns:xlink="http://www.w3.org/1999/xlink" x="0px" y="0px"
	 viewBox="0 0 993.04 409.98" style="enable-background:new 0 0 993.04 409.98;" xml:space="preserve">
<style type="text/css">
	
		.st0{clip-path:url(#SVGID_00000083057990241450278380000013926250331094096548_);fill:#FFFFFF;stroke:#1A1A1A;stroke-miterlimit:10;}
	.st1{clip-path:url(#SVGID_00000083057990241450278380000013926250331094096548_);}
	.st2{fill:#FFFFFF;stroke:#1A1A1A;stroke-miterlimit:10;}
	.st3{fill:#FFFFFF;stroke:#000000;stroke-miterlimit:10;}
	.st4{fill:#FFFFFF;stroke:#1A1A1A;stroke-miterlimit:1;}
	.st5{fill:none;stroke:#1A1A1A;stroke-miterlimit:1;}
	.st6{fill:none;stroke:#1A1A1A;stroke-miterlimit:10;}
	.st7{fill:#1A1A1A;}
	.st8{clip-path:url(#SVGID_00000083057990241450278380000013926250331094096548_);fill:none;stroke:#1A1A1A;stroke-miterlimit:10;}
	
		.st9{clip-path:url(#SVGID_00000083057990241450278380000013926250331094096548_);fill:#FFFFFF;stroke:#1A1A1A;stroke-miterlimit:1;}
	.st10{clip-path:url(#SVGID_00000083057990241450278380000013926250331094096548_);fill:#1A1A1A;}
</style>
<g>
	<defs>
		<rect id="SVGID_1_" x="0.47" width="992.57" height="410.89"/>
	</defs>
	<clipPath id="SVGID_00000092424491998938005130000016530336620368903868_">
		<use xlink:href="#SVGID_1_"  style="overflow:visible;"/>
	</clipPath>
	
		<rect x="405.96" y="390.2" style="clip-path:url(#SVGID_00000092424491998938005130000016530336620368903868_);fill:#FFFFFF;stroke:#1A1A1A;stroke-miterlimit:10;" width="26.13" height="2.3"/>
	<g style="clip-path:url(#SVGID_00000092424491998938005130000016530336620368903868_);">
		<rect x="24.34" y="328.85" class="st2" width="1.68" height="15.47"/>
		<rect x="74.63" y="147.42" class="st2" width="62.93" height="263.99"/>
		<polygon class="st2" points="74.63,147.43 74.63,411.42 63.91,411.42 63.91,155.93 67.06,153.43 		"/>
		<polygon class="st2" points="67.06,153.43 67.06,411.42 63.91,411.42 63.91,155.93 		"/>
		<rect x="74.63" y="164.61" class="st3" width="62.93" height="9.02"/>
		<rect x="74.63" y="190.91" class="st3" width="62.93" height="9.02"/>
		<rect x="74.63" y="217.21" class="st3" width="62.93" height="9.02"/>
		<rect x="74.63" y="243.51" class="st3" width="62.93" height="9.02"/>
		<rect x="74.63" y="268.19" class="st3" width="62.93" height="10.64"/>
		<rect x="74.63" y="296.1" class="st3" width="62.93" height="9.02"/>
		<rect x="74.63" y="322.4" class="st3" width="62.93" height="9.02"/>
		<rect x="74.63" y="348.7" class="st3" width="62.93" height="9.02"/>
		<rect x="74.63" y="375" class="st3" width="62.93" height="9.02"/>
		<rect x="74.63" y="401.3" class="st3" width="62.93" height="9.02"/>
		<rect x="74.63" y="148.44" class="st3" width="3.24" height="259.91"/>
		<rect x="134.32" y="148.44" class="st3" width="3.24" height="259.91"/>
		<rect x="81.28" y="177.3" class="st2" width="2.89" height="10.64"/>
		<rect x="89.09" y="177.3" class="st2" width="2.89" height="10.64"/>
		<rect x="96.91" y="177.3" class="st2" width="2.89" height="10.64"/>
		<rect x="104.72" y="177.3" class="st2" width="2.89" height="10.64"/>
		<rect x="112.54" y="177.3" class="st2" width="2.89" height="10.64"/>
		<rect x="120.35" y="177.3" class="st2" width="2.89" height="10.64"/>
		<rect x="128.17" y="177.3" class="st2" width="2.89" height="10.64"/>
		<g>
			<rect x="81.28" y="151.32" class="st2" width="2.89" height="10.64"/>
			<rect x="89.09" y="151.32" class="st2" width="2.89" height="10.64"/>
			<rect x="96.91" y="151.32" class="st2" width="2.89" height="10.64"/>
			<rect x="104.72" y="151.32" class="st2" width="2.89" height="10.64"/>
			<rect x="112.54" y="151.32" class="st2" width="2.89" height="10.64"/>
			<rect x="120.35" y="151.32" class="st2" width="2.89" height="10.64"/>
			<rect x="128.17" y="151.32" class="st2" width="2.89" height="10.64"/>
		</g>
		<g>
			<rect x="81.28" y="203.25" class="st2" width="2.89" height="10.64"/>
			<rect x="89.09" y="203.25" class="st2" width="2.89" height="10.64"/>
			<rect x="96.91" y="203.25" class="st2" width="2.89" height="10.64"/>
			<rect x="104.72" y="203.25" class="st2" width="2.89" height="10.64"/>
			<rect x="112.54" y="203.25" class="st2" width="2.89" height="10.64"/>
			<rect x="120.35" y="203.25" class="st2" width="2.89" height="10.64"/>
			<rect x="128.17" y="203.25" class="st2" width="2.89" height="10.64"/>
		</g>
		<g>
			<rect x="81.28" y="229.55" class="st2" width="2.89" height="10.64"/>
			<rect x="89.09" y="229.55" class="st2" width="2.89" height="10.64"/>
			<rect x="96.91" y="229.55" class="st2" width="2.89" height="10.64"/>
			<rect x="104.72" y="229.55" class="st2" width="2.89" height="10.64"/>
			<rect x="112.54" y="229.55" class="st2" width="2.89" height="10.64"/>
			<rect x="120.35" y="229.55" class="st2" width="2.89" height="10.64"/>
			<rect x="128.17" y="229.55" class="st2" width="2.89" height="10.64"/>
		</g>
		<g>
			<rect x="81.28" y="255.85" class="st2" width="2.89" height="10.64"/>
			<rect x="89.09" y="255.85" class="st2" width="2.89" height="10.64"/>
			<rect x="96.91" y="255.85" class="st2" width="2.89" height="10.64"/>
			<rect x="104.72" y="255.85" class="st2" width="2.89" height="10.64"/>
			<rect x="112.54" y="255.85" class="st2" width="2.89" height="10.64"/>
			<rect x="120.35" y="255.85" class="st2" width="2.89" height="10.64"/>
			<rect x="128.17" y="255.85" class="st2" width="2.89" height="10.64"/>
		</g>
		<g>
			<rect x="81.28" y="282.15" class="st2" width="2.89" height="10.64"/>
			<rect x="89.09" y="282.15" class="st2" width="2.89" height="10.64"/>
			<rect x="96.91" y="282.15" class="st2" width="2.89" height="10.64"/>
			<rect x="104.72" y="282.15" class="st2" width="2.89" height="10.64"/>
			<rect x="112.54" y="282.15" class="st2" width="2.89" height="10.64"/>
			<rect x="120.35" y="282.15" class="st2" width="2.89" height="10.64"/>
			<rect x="128.17" y="282.15" class="st2" width="2.89" height="10.64"/>
		</g>
		<g>
			<rect x="81.28" y="308.44" class="st2" width="2.89" height="10.64"/>
			<rect x="89.09" y="308.44" class="st2" width="2.89" height="10.64"/>
			<rect x="96.91" y="308.44" class="st2" width="2.89" height="10.64"/>
			<rect x="104.72" y="308.44" class="st2" width="2.89" height="10.64"/>
			<rect x="112.54" y="308.44" class="st2" width="2.89" height="10.64"/>
			<rect x="120.35" y="308.44" class="st2" width="2.89" height="10.64"/>
			<rect x="128.17" y="308.44" class="st2" width="2.89" height="10.64"/>
		</g>
		<g>
			<rect x="81.28" y="334.74" class="st2" width="2.89" height="10.64"/>
			<rect x="89.09" y="334.74" class="st2" width="2.89" height="10.64"/>
			<rect x="96.91" y="334.74" class="st2" width="2.89" height="10.64"/>
			<rect x="104.72" y="334.74" class="st2" width="2.89" height="10.64"/>
			<rect x="112.54" y="334.74" class="st2" width="2.89" height="10.64"/>
			<rect x="120.35" y="334.74" class="st2" width="2.89" height="10.64"/>
			<rect x="128.17" y="334.74" class="st2" width="2.89" height="10.64"/>
		</g>
		<g>
			<rect x="81.28" y="361.04" class="st2" width="2.89" height="10.64"/>
			<rect x="89.09" y="361.04" class="st2" width="2.89" height="10.64"/>
			<rect x="96.91" y="361.04" class="st2" width="2.89" height="10.64"/>
			<rect x="104.72" y="361.04" class="st2" width="2.89" height="10.64"/>
			<rect x="112.54" y="361.04" class="st2" width="2.89" height="10.64"/>
			<rect x="120.35" y="361.04" class="st2" width="2.89" height="10.64"/>
			<rect x="128.17" y="361.04" class="st2" width="2.89" height="10.64"/>
		</g>
		<g>
			<rect x="81.28" y="387.34" class="st2" width="2.89" height="10.64"/>
			<rect x="89.09" y="387.34" class="st2" width="2.89" height="10.64"/>
			<rect x="96.91" y="387.34" class="st2" width="2.89" height="10.64"/>
			<rect x="104.72" y="387.34" class="st2" width="2.89" height="10.64"/>
			<rect x="112.54" y="387.34" class="st2" width="2.89" height="10.64"/>
			<rect x="120.35" y="387.34" class="st2" width="2.89" height="10.64"/>
			<rect x="128.17" y="387.34" class="st2" width="2.89" height="10.64"/>
		</g>
		<g>
			<rect x="22.39" y="407.91" class="st4" width="41.85" height="3.06"/>
			<g>
				<line class="st5" x1="26.03" y1="410.89" x2="26.03" y2="419.76"/>
				<line class="st5" x1="30.28" y1="410.89" x2="30.28" y2="419.76"/>
				<line class="st5" x1="34.54" y1="410.89" x2="34.54" y2="419.76"/>
				<line class="st5" x1="38.79" y1="410.89" x2="38.79" y2="419.76"/>
				<line class="st5" x1="43.05" y1="410.89" x2="43.05" y2="419.76"/>
				<line class="st5" x1="47.3" y1="410.89" x2="47.3" y2="419.76"/>
				<line class="st5" x1="51.56" y1="410.89" x2="51.56" y2="419.76"/>
				<line class="st5" x1="55.81" y1="410.89" x2="55.81" y2="419.76"/>
				<line class="st5" x1="60.07" y1="410.89" x2="60.07" y2="419.76"/>
			</g>
			<g>
				<polygon class="st4" points="57.26,432.78 15.41,432.78 15.41,349.14 22.39,342.75 				"/>
				<rect x="22.39" y="342.75" class="st4" width="41.85" height="83.63"/>
				<rect x="22.39" y="348.28" class="st4" width="41.85" height="3.06"/>
				<rect x="22.39" y="360.2" class="st4" width="41.85" height="3.06"/>
				<rect x="22.39" y="372.13" class="st4" width="41.85" height="3.06"/>
				<rect x="22.39" y="384.06" class="st4" width="41.85" height="3.06"/>
				<rect x="22.39" y="395.98" class="st4" width="41.85" height="3.06"/>
				<g>
					<line class="st5" x1="26.03" y1="351.34" x2="26.03" y2="360.2"/>
					<line class="st5" x1="30.28" y1="351.34" x2="30.28" y2="360.2"/>
					<line class="st5" x1="34.54" y1="351.34" x2="34.54" y2="360.2"/>
					<line class="st5" x1="38.79" y1="351.34" x2="38.79" y2="360.2"/>
					<line class="st5" x1="43.05" y1="351.34" x2="43.05" y2="360.2"/>
					<line class="st5" x1="47.3" y1="351.34" x2="47.3" y2="360.2"/>
					<line class="st5" x1="51.56" y1="351.34" x2="51.56" y2="360.2"/>
					<line class="st5" x1="55.81" y1="351.34" x2="55.81" y2="360.2"/>
					<line class="st5" x1="60.07" y1="351.34" x2="60.07" y2="360.2"/>
				</g>
				<g>
					<line class="st5" x1="26.03" y1="363.25" x2="26.03" y2="372.11"/>
					<line class="st5" x1="30.28" y1="363.25" x2="30.28" y2="372.11"/>
					<line class="st5" x1="34.54" y1="363.25" x2="34.54" y2="372.11"/>
					<line class="st5" x1="38.79" y1="363.25" x2="38.79" y2="372.11"/>
					<line class="st5" x1="43.05" y1="363.25" x2="43.05" y2="372.11"/>
					<line class="st5" x1="47.3" y1="363.25" x2="47.3" y2="372.11"/>
					<line class="st5" x1="51.56" y1="363.25" x2="51.56" y2="372.11"/>
					<line class="st5" x1="55.81" y1="363.25" x2="55.81" y2="372.11"/>
					<line class="st5" x1="60.07" y1="363.25" x2="60.07" y2="372.11"/>
				</g>
				<g>
					<line class="st5" x1="26.03" y1="375.16" x2="26.03" y2="384.02"/>
					<line class="st5" x1="30.28" y1="375.16" x2="30.28" y2="384.02"/>
					<line class="st5" x1="34.54" y1="375.16" x2="34.54" y2="384.02"/>
					<line class="st5" x1="38.79" y1="375.16" x2="38.79" y2="384.02"/>
					<line class="st5" x1="43.05" y1="375.16" x2="43.05" y2="384.02"/>
					<line class="st5" x1="47.3" y1="375.16" x2="47.3" y2="384.02"/>
					<line class="st5" x1="51.56" y1="375.16" x2="51.56" y2="384.02"/>
					<line class="st5" x1="55.81" y1="375.16" x2="55.81" y2="384.02"/>
					<line class="st5" x1="60.07" y1="375.16" x2="60.07" y2="384.02"/>
				</g>
				<g>
					<line class="st5" x1="26.03" y1="387.07" x2="26.03" y2="395.94"/>
					<line class="st5" x1="30.28" y1="387.07" x2="30.28" y2="395.94"/>
					<line class="st5" x1="34.54" y1="387.07" x2="34.54" y2="395.94"/>
					<line class="st5" x1="38.79" y1="387.07" x2="38.79" y2="395.94"/>
					<line class="st5" x1="43.05" y1="387.07" x2="43.05" y2="395.94"/>
					<line class="st5" x1="47.3" y1="387.07" x2="47.3" y2="395.94"/>
					<line class="st5" x1="51.56" y1="387.07" x2="51.56" y2="395.94"/>
					<line class="st5" x1="55.81" y1="387.07" x2="55.81" y2="395.94"/>
					<line class="st5" x1="60.07" y1="387.07" x2="60.07" y2="395.94"/>
				</g>
				<g>
					<line class="st5" x1="26.03" y1="398.98" x2="26.03" y2="407.85"/>
					<line class="st5" x1="30.28" y1="398.98" x2="30.28" y2="407.85"/>
					<line class="st5" x1="34.54" y1="398.98" x2="34.54" y2="407.85"/>
					<line class="st5" x1="38.79" y1="398.98" x2="38.79" y2="407.85"/>
					<line class="st5" x1="43.05" y1="398.98" x2="43.05" y2="407.85"/>
					<line class="st5" x1="47.3" y1="398.98" x2="47.3" y2="407.85"/>
					<line class="st5" x1="51.56" y1="398.98" x2="51.56" y2="407.85"/>
					<line class="st5" x1="55.81" y1="398.98" x2="55.81" y2="407.85"/>
					<line class="st5" x1="60.07" y1="398.98" x2="60.07" y2="407.85"/>
				</g>
				<rect x="18.03" y="393.5" class="st4" width="10.72" height="21.25"/>
			</g>
		</g>
		<g>
			<path class="st6" d="M96.91,293.47c0,0,2.18,25.48,24.89,1.04"/>
			<rect y="272.56" class="st2" width="648.51" height="16.49"/>
			
				<rect x="425.95" y="302.08" transform="matrix(0.8478 -0.5304 0.5304 0.8478 -92.2959 285.8826)" class="st6" width="51.77" height="3.27"/>
			<rect x="405.96" y="279.55" class="st2" width="32.85" height="10.09"/>
			<rect x="405.96" y="314.91" class="st2" width="26.13" height="2.3"/>
			
				<rect x="401.11" y="301.26" transform="matrix(0.7071 0.7071 -0.7071 0.7071 336.5733 -206.8406)" class="st2" width="33.7" height="3.19"/>
			<rect x="405.96" y="340.01" class="st2" width="26.13" height="2.3"/>
			
				<rect x="401.11" y="326.36" transform="matrix(0.7071 0.7071 -0.7071 0.7071 354.3187 -199.4902)" class="st2" width="33.7" height="3.19"/>
			<rect x="405.96" y="365.1" class="st2" width="26.13" height="2.3"/>
			
				<rect x="401.11" y="351.46" transform="matrix(0.7071 0.7071 -0.7071 0.7071 372.0641 -192.1398)" class="st2" width="33.7" height="3.19"/>
			
				<rect x="401.11" y="376.55" transform="matrix(0.7071 0.7071 -0.7071 0.7071 389.8095 -184.7894)" class="st2" width="33.7" height="3.19"/>
			<rect x="404.43" y="288.6" class="st2" width="3.06" height="101.19"/>
			<rect x="429.02" y="288.6" class="st2" width="3.06" height="101.19"/>
			<path class="st6" d="M439.28,293.02c0,0-1.28,8.43,4.34,9.45c5.62,1.02,7.6-10.15,7.6-10.15"/>
			<rect x="508.95" y="278.74" class="st2" width="43.83" height="9.86"/>
			<rect x="487.4" y="287.42" class="st2" width="19.79" height="6.47"/>
			<rect y="270.7" class="st2" width="650.18" height="5.71"/>
			<rect y="286.54" class="st2" width="650.18" height="4.12"/>
			<rect x="423.15" y="284.2" class="st2" width="19.79" height="9.69"/>
			<rect x="448.08" y="284.2" class="st2" width="19.79" height="9.69"/>
			<rect x="476.07" y="288.6" class="st2" width="2.81" height="37.66"/>
			<rect x="482.04" y="288.6" class="st2" width="2.81" height="37.66"/>
			<rect x="471.68" y="321.98" class="st7" width="23.28" height="1.08"/>
			<rect x="429.02" y="321.77" class="st4" width="30" height="2.6"/>
			<rect x="117.96" y="288.6" class="st2" width="35.36" height="8.7"/>
			<rect x="84.17" y="288.6" class="st2" width="12.95" height="8.7"/>
			<path class="st6" d="M493.08,276.4c0,0,2.47,7.11,15.87,6.68"/>
			<path class="st6" d="M475.28,290.98c0,0-5.56,22.77,3.6,30.79"/>
		</g>
	</g>
	<g style="clip-path:url(#SVGID_00000092424491998938005130000016530336620368903868_);">
		<polygon class="st4" points="683.11,208.49 666.46,217.63 666.46,173.32 683.11,164.19 		"/>
		<polygon class="st4" points="683.11,208.49 694.6,210.35 694.6,166.05 683.11,164.19 		"/>
		<polygon class="st4" points="666.46,217.63 677.95,219.49 694.6,210.35 683.11,208.49 		"/>
	</g>
	
		<polygon style="clip-path:url(#SVGID_00000092424491998938005130000016530336620368903868_);fill:none;stroke:#1A1A1A;stroke-miterlimit:10;" points="
		692.34,185.21 686.64,185.21 686.64,168.61 692.34,169.47 	"/>
	
		<rect x="698.64" y="175.85" style="clip-path:url(#SVGID_00000092424491998938005130000016530336620368903868_);fill:#FFFFFF;stroke:#1A1A1A;stroke-miterlimit:10;" width="3.87" height="5.74"/>
	
		<rect x="727.62" y="175.85" style="clip-path:url(#SVGID_00000092424491998938005130000016530336620368903868_);fill:#FFFFFF;stroke:#1A1A1A;stroke-miterlimit:10;" width="3.87" height="5.74"/>
	<g style="clip-path:url(#SVGID_00000092424491998938005130000016530336620368903868_);">
		<polygon class="st4" points="677.1,227.74 659.08,235.4 659.08,198.25 677.1,190.59 		"/>
		<polygon class="st4" points="677.1,227.74 689.53,229.3 689.53,192.15 677.1,190.59 		"/>
		<polygon class="st4" points="659.08,235.4 671.52,236.96 689.53,229.3 677.1,227.74 		"/>
	</g>
	
		<polygon style="clip-path:url(#SVGID_00000092424491998938005130000016530336620368903868_);fill:#FFFFFF;stroke:#1A1A1A;stroke-miterlimit:1;" points="
		688.22,246.23 681.93,246.23 681.93,187.27 688.22,181.32 	"/>
	
		<rect x="688.22" y="181.32" style="clip-path:url(#SVGID_00000092424491998938005130000016530336620368903868_);fill:#FFFFFF;stroke:#1A1A1A;stroke-miterlimit:10;" width="45.66" height="64.91"/>
	
		<rect x="696.49" y="151.04" style="clip-path:url(#SVGID_00000092424491998938005130000016530336620368903868_);fill:#FFFFFF;stroke:#1A1A1A;stroke-miterlimit:10;" width="38.64" height="25.28"/>
	
		<rect x="693.36" y="181.32" style="clip-path:url(#SVGID_00000092424491998938005130000016530336620368903868_);fill:#FFFFFF;stroke:#1A1A1A;stroke-miterlimit:10;" width="4.43" height="64.91"/>
	
		<rect x="724.43" y="181.32" style="clip-path:url(#SVGID_00000092424491998938005130000016530336620368903868_);fill:#FFFFFF;stroke:#1A1A1A;stroke-miterlimit:10;" width="4.43" height="64.91"/>
	
		<rect x="708.89" y="181.32" style="clip-path:url(#SVGID_00000092424491998938005130000016530336620368903868_);fill:#FFFFFF;stroke:#1A1A1A;stroke-miterlimit:10;" width="4.43" height="64.91"/>
	
		<rect x="688.22" y="187.57" style="clip-path:url(#SVGID_00000092424491998938005130000016530336620368903868_);fill:#FFFFFF;stroke:#1A1A1A;stroke-miterlimit:10;" width="45.66" height="3.57"/>
	
		<rect x="688.22" y="201.72" style="clip-path:url(#SVGID_00000092424491998938005130000016530336620368903868_);fill:#FFFFFF;stroke:#1A1A1A;stroke-miterlimit:10;" width="45.66" height="3.57"/>
	
		<rect x="688.22" y="215.87" style="clip-path:url(#SVGID_00000092424491998938005130000016530336620368903868_);fill:#FFFFFF;stroke:#1A1A1A;stroke-miterlimit:10;" width="45.66" height="3.57"/>
	
		<rect x="688.22" y="230.01" style="clip-path:url(#SVGID_00000092424491998938005130000016530336620368903868_);fill:#FFFFFF;stroke:#1A1A1A;stroke-miterlimit:10;" width="45.66" height="3.57"/>
	
		<rect x="690" y="252.9" style="clip-path:url(#SVGID_00000092424491998938005130000016530336620368903868_);fill:#FFFFFF;stroke:#1A1A1A;stroke-miterlimit:1;" width="43.66" height="44.56"/>
	<g style="clip-path:url(#SVGID_00000092424491998938005130000016530336620368903868_);">
		<rect x="693.28" y="287.14" class="st7" width="2.64" height="7.03"/>
		<rect x="699.32" y="287.14" class="st7" width="2.64" height="7.03"/>
		<rect x="705.36" y="287.14" class="st7" width="2.64" height="7.03"/>
		<rect x="711.4" y="287.14" class="st7" width="2.64" height="7.03"/>
		<rect x="717.45" y="287.14" class="st7" width="2.64" height="7.03"/>
		<rect x="723.49" y="287.14" class="st7" width="2.64" height="7.03"/>
	</g>
	
		<rect x="689.53" y="257.3" style="clip-path:url(#SVGID_00000092424491998938005130000016530336620368903868_);fill:#FFFFFF;stroke:#1A1A1A;stroke-miterlimit:1;" width="46.3" height="7.53"/>
	
		<rect x="689.53" y="277.35" style="clip-path:url(#SVGID_00000092424491998938005130000016530336620368903868_);fill:#FFFFFF;stroke:#1A1A1A;stroke-miterlimit:1;" width="46.3" height="7.53"/>
	<g style="clip-path:url(#SVGID_00000092424491998938005130000016530336620368903868_);">
		<path class="st4" d="M642.78,295.12h-14.55v-38.09c0-7.25,5.88-13.13,13.13-13.13h1.42V295.12z"/>
		<path class="st4" d="M642.78,304.09h-14.55V266c0-7.25,5.88-13.13,13.13-13.13h1.42V304.09z"/>
		<polygon class="st4" points="684.05,310.48 642.2,310.48 642.2,226.85 649.18,220.45 		"/>
		<rect x="649.18" y="220.45" class="st4" width="41.85" height="83.63"/>
		<rect x="649.18" y="225.98" class="st4" width="41.85" height="3.06"/>
		<rect x="649.18" y="237.91" class="st4" width="41.85" height="3.06"/>
		<rect x="649.18" y="249.84" class="st4" width="41.85" height="3.06"/>
		<rect x="649.18" y="261.76" class="st4" width="41.85" height="3.06"/>
		<rect x="649.18" y="273.69" class="st4" width="41.85" height="3.06"/>
		<rect x="649.18" y="285.61" class="st4" width="41.85" height="3.06"/>
		<g>
			<line class="st5" x1="652.82" y1="229.05" x2="652.82" y2="237.91"/>
			<line class="st5" x1="657.08" y1="229.05" x2="657.08" y2="237.91"/>
			<line class="st5" x1="661.33" y1="229.05" x2="661.33" y2="237.91"/>
			<line class="st5" x1="665.59" y1="229.05" x2="665.59" y2="237.91"/>
			<line class="st5" x1="669.84" y1="229.05" x2="669.84" y2="237.91"/>
			<line class="st5" x1="674.1" y1="229.05" x2="674.1" y2="237.91"/>
			<line class="st5" x1="678.35" y1="229.05" x2="678.35" y2="237.91"/>
			<line class="st5" x1="682.61" y1="229.05" x2="682.61" y2="237.91"/>
			<line class="st5" x1="686.86" y1="229.05" x2="686.86" y2="237.91"/>
		</g>
		<g>
			<line class="st5" x1="652.82" y1="240.96" x2="652.82" y2="249.82"/>
			<line class="st5" x1="657.08" y1="240.96" x2="657.08" y2="249.82"/>
			<line class="st5" x1="661.33" y1="240.96" x2="661.33" y2="249.82"/>
			<line class="st5" x1="665.59" y1="240.96" x2="665.59" y2="249.82"/>
			<line class="st5" x1="669.84" y1="240.96" x2="669.84" y2="249.82"/>
			<line class="st5" x1="674.1" y1="240.96" x2="674.1" y2="249.82"/>
			<line class="st5" x1="678.35" y1="240.96" x2="678.35" y2="249.82"/>
			<line class="st5" x1="682.61" y1="240.96" x2="682.61" y2="249.82"/>
			<line class="st5" x1="686.86" y1="240.96" x2="686.86" y2="249.82"/>
		</g>
		<g>
			<line class="st5" x1="652.82" y1="252.87" x2="652.82" y2="261.73"/>
			<line class="st5" x1="657.08" y1="252.87" x2="657.08" y2="261.73"/>
			<line class="st5" x1="661.33" y1="252.87" x2="661.33" y2="261.73"/>
			<line class="st5" x1="665.59" y1="252.87" x2="665.59" y2="261.73"/>
			<line class="st5" x1="669.84" y1="252.87" x2="669.84" y2="261.73"/>
			<line class="st5" x1="674.1" y1="252.87" x2="674.1" y2="261.73"/>
			<line class="st5" x1="678.35" y1="252.87" x2="678.35" y2="261.73"/>
			<line class="st5" x1="682.61" y1="252.87" x2="682.61" y2="261.73"/>
			<line class="st5" x1="686.86" y1="252.87" x2="686.86" y2="261.73"/>
		</g>
		<g>
			<line class="st5" x1="652.82" y1="264.78" x2="652.82" y2="273.64"/>
			<line class="st5" x1="657.08" y1="264.78" x2="657.08" y2="273.64"/>
			<line class="st5" x1="661.33" y1="264.78" x2="661.33" y2="273.64"/>
			<line class="st5" x1="665.59" y1="264.78" x2="665.59" y2="273.64"/>
			<line class="st5" x1="669.84" y1="264.78" x2="669.84" y2="273.64"/>
			<line class="st5" x1="674.1" y1="264.78" x2="674.1" y2="273.64"/>
			<line class="st5" x1="678.35" y1="264.78" x2="678.35" y2="273.64"/>
			<line class="st5" x1="682.61" y1="264.78" x2="682.61" y2="273.64"/>
			<line class="st5" x1="686.86" y1="264.78" x2="686.86" y2="273.64"/>
		</g>
		<g>
			<line class="st5" x1="652.82" y1="276.69" x2="652.82" y2="285.55"/>
			<line class="st5" x1="657.08" y1="276.69" x2="657.08" y2="285.55"/>
			<line class="st5" x1="661.33" y1="276.69" x2="661.33" y2="285.55"/>
			<line class="st5" x1="665.59" y1="276.69" x2="665.59" y2="285.55"/>
			<line class="st5" x1="669.84" y1="276.69" x2="669.84" y2="285.55"/>
			<line class="st5" x1="674.1" y1="276.69" x2="674.1" y2="285.55"/>
			<line class="st5" x1="678.35" y1="276.69" x2="678.35" y2="285.55"/>
			<line class="st5" x1="682.61" y1="276.69" x2="682.61" y2="285.55"/>
			<line class="st5" x1="686.86" y1="276.69" x2="686.86" y2="285.55"/>
		</g>
		<g>
			<line class="st5" x1="652.82" y1="288.6" x2="652.82" y2="297.46"/>
			<line class="st5" x1="657.08" y1="288.6" x2="657.08" y2="297.46"/>
			<line class="st5" x1="661.33" y1="288.6" x2="661.33" y2="297.46"/>
			<line class="st5" x1="665.59" y1="288.6" x2="665.59" y2="297.46"/>
			<line class="st5" x1="669.84" y1="288.6" x2="669.84" y2="297.46"/>
			<line class="st5" x1="674.1" y1="288.6" x2="674.1" y2="297.46"/>
			<line class="st5" x1="678.35" y1="288.6" x2="678.35" y2="297.46"/>
			<line class="st5" x1="682.61" y1="288.6" x2="682.61" y2="297.46"/>
			<line class="st5" x1="686.86" y1="288.6" x2="686.86" y2="297.46"/>
		</g>
		<rect x="644.82" y="271.2" class="st4" width="10.72" height="21.25"/>
	</g>
	
		<path style="clip-path:url(#SVGID_00000092424491998938005130000016530336620368903868_);fill:#FFFFFF;stroke:#1A1A1A;stroke-miterlimit:1;" d="
		M833.14,346.19"/>
	
		<rect x="693.28" y="267" style="clip-path:url(#SVGID_00000092424491998938005130000016530336620368903868_);fill:#1A1A1A;" width="2.64" height="7.03"/>
	
		<rect x="699.32" y="267" style="clip-path:url(#SVGID_00000092424491998938005130000016530336620368903868_);fill:#1A1A1A;" width="2.64" height="7.03"/>
	
		<rect x="705.36" y="267" style="clip-path:url(#SVGID_00000092424491998938005130000016530336620368903868_);fill:#1A1A1A;" width="2.64" height="7.03"/>
	
		<rect x="711.4" y="267" style="clip-path:url(#SVGID_00000092424491998938005130000016530336620368903868_);fill:#1A1A1A;" width="2.64" height="7.03"/>
	
		<rect x="717.45" y="267" style="clip-path:url(#SVGID_00000092424491998938005130000016530336620368903868_);fill:#1A1A1A;" width="2.64" height="7.03"/>
	
		<rect x="723.49" y="267" style="clip-path:url(#SVGID_00000092424491998938005130000016530336620368903868_);fill:#1A1A1A;" width="2.64" height="7.03"/>
	
		<rect x="632.49" y="266.21" style="clip-path:url(#SVGID_00000092424491998938005130000016530336620368903868_);fill:#FFFFFF;stroke:#1A1A1A;stroke-miterlimit:1;" width="2.87" height="13.28"/>
	
		<rect x="689.76" y="249.1" transform="matrix(0.6303 0.7764 -0.7764 0.6303 450.4585 -446.7122)" style="clip-path:url(#SVGID_00000092424491998938005130000016530336620368903868_);fill:#1A1A1A;" width="8.95" height="0.98"/>
	
		<rect x="699.15" y="249.1" transform="matrix(0.6303 0.7764 -0.7764 0.6303 453.9277 -453.9969)" style="clip-path:url(#SVGID_00000092424491998938005130000016530336620368903868_);fill:#1A1A1A;" width="8.95" height="0.98"/>
	
		<rect x="708.53" y="249.1" transform="matrix(0.6303 0.7764 -0.7764 0.6303 457.397 -461.2817)" style="clip-path:url(#SVGID_00000092424491998938005130000016530336620368903868_);fill:#1A1A1A;" width="8.95" height="0.98"/>
	
		<rect x="717.91" y="249.1" transform="matrix(0.6303 0.7764 -0.7764 0.6303 460.8662 -468.5665)" style="clip-path:url(#SVGID_00000092424491998938005130000016530336620368903868_);fill:#1A1A1A;" width="8.95" height="0.98"/>
	<polygon style="clip-path:url(#SVGID_00000092424491998938005130000016530336620368903868_);fill:#1A1A1A;" points="733.38,253.28 
		728.92,246.42 729.74,245.89 734.05,252.76 	"/>
	
		<rect x="722.7" y="249.1" transform="matrix(0.6303 -0.7764 0.7764 0.6303 75.09 656.8452)" style="clip-path:url(#SVGID_00000092424491998938005130000016530336620368903868_);fill:#1A1A1A;" width="8.95" height="0.98"/>
	
		<rect x="713.22" y="249.1" transform="matrix(0.6303 -0.7764 0.7764 0.6303 71.5852 649.4858)" style="clip-path:url(#SVGID_00000092424491998938005130000016530336620368903868_);fill:#1A1A1A;" width="8.95" height="0.98"/>
	
		<rect x="703.74" y="249.1" transform="matrix(0.6303 -0.7764 0.7764 0.6303 68.0804 642.1263)" style="clip-path:url(#SVGID_00000092424491998938005130000016530336620368903868_);fill:#1A1A1A;" width="8.95" height="0.98"/>
	
		<rect x="694.26" y="249.1" transform="matrix(0.6303 -0.7764 0.7764 0.6303 64.5757 634.7669)" style="clip-path:url(#SVGID_00000092424491998938005130000016530336620368903868_);fill:#1A1A1A;" width="8.95" height="0.98"/>
	
		<rect x="733.52" y="246.19" style="clip-path:url(#SVGID_00000092424491998938005130000016530336620368903868_);fill:#1A1A1A;" width="0.65" height="6.79"/>
	
		<polygon style="clip-path:url(#SVGID_00000092424491998938005130000016530336620368903868_);fill:none;stroke:#1A1A1A;stroke-miterlimit:10;" points="
		659.08,203.17 677.1,196.27 677.1,205.89 659.08,211.55 	"/>
	
		<polygon style="clip-path:url(#SVGID_00000092424491998938005130000016530336620368903868_);fill:none;stroke:#1A1A1A;stroke-miterlimit:10;" points="
		676.4,186.39 666.46,190.91 666.46,179.66 676.4,174.61 	"/>
	<path style="clip-path:url(#SVGID_00000092424491998938005130000016530336620368903868_);fill:#1A1A1A;" d="M519.48,358.71
		l0.02,0.03l-1.18,0.31l-0.02-0.02C518.68,358.93,519.08,358.82,519.48,358.71z"/>
	<path style="clip-path:url(#SVGID_00000092424491998938005130000016530336620368903868_);fill:#1A1A1A;" d="M527.95,356.55
		l-1.19,0.3l-0.02-0.03c0.4-0.11,0.8-0.21,1.18-0.31L527.95,356.55z"/>
</g>
</svg>
