<?xml version="1.0" encoding="utf-8"?>
<!-- Generator: Adobe Illustrator 26.5.0, SVG Export Plug-In . SVG Version: 6.00 Build 0)  -->
<svg version="1.1" id="圖層_1" xmlns="http://www.w3.org/2000/svg" xmlns:xlink="http://www.w3.org/1999/xlink" x="0px" y="0px"
	 viewBox="0 0 677.87 300.26" style="enable-background:new 0 0 677.87 300.26;" xml:space="preserve">
<style type="text/css">
	.st0{fill:none;stroke:#000000;stroke-miterlimit:10;}
	.st1{fill:#3E3A39;}
</style>
<g>
	<path d="M48.87,44.47l3.86,1.2C51.91,47.99,51,50.2,50,52.29v24.8h-3.96V59.2c-1,1.37-1.78,2.37-2.32,3.01
		c-0.39-1.3-1-2.72-1.84-4.27c-0.05-0.09-0.09-0.17-0.14-0.24c2.57-2.82,4.73-6.56,6.46-11.21C48.44,45.8,48.67,45.13,48.87,44.47z
		 M53.21,46.18h20.91v30.54h-3.96v-1.71H57v2.02h-3.79V46.18z M57,71.39h13.15V49.77H57V71.39z M69.34,57.08H65.1v3.01h3.38v9.39
		h-9.7v-9.39h3.11v-3.01h-4.03v-3.01h4.03v-3.55h3.21v3.55h4.24V57.08z M65.37,66.64v-3.69h-3.59v3.69H65.37z"/>
	<path d="M100.65,45.19h4.75c-0.02,0.46-0.06,1.13-0.1,2.02c0.34,6.08,1.83,11.43,4.47,16.06c2.62,4.53,6.16,7.85,10.62,9.94
		c-1.41,1.09-2.49,2.28-3.25,3.55c-6.61-3.28-11.18-9.1-13.73-17.46c-0.02-0.05-0.03-0.08-0.03-0.1
		c-2.37,7.86-6.68,13.71-12.95,17.56c-0.77-1.12-1.94-2.22-3.48-3.31c8.45-4.67,12.98-13.1,13.6-25.28
		c0.02-0.43,0.04-1.04,0.07-1.81C100.64,45.78,100.65,45.39,100.65,45.19z"/>
	<path d="M160.29,71.19h-6.05c3.83,1.37,7.15,2.73,9.98,4.1l-4.82,1.84c-2.21-1.28-5.25-2.65-9.12-4.13l3.18-1.81h-10.25l3.21,1.4
		c-2.69,1.75-6.29,3.27-10.79,4.54c-0.07,0.02-0.11,0.03-0.14,0.03c-1.18-1.3-2.21-2.31-3.08-3.04c3.87-0.71,7.08-1.69,9.63-2.94
		h-5.16V56.98h7.31c-0.32-0.66-0.8-1.39-1.43-2.19c-4.26,1.18-7.45,2.06-9.57,2.63l-1.16-3.38c2.32-0.43,5.84-1.21,10.56-2.32
		l0.34,2.77c3.58-0.61,5.91-1.66,7-3.14c0.34-0.5,0.61-1.07,0.82-1.71h-2.53c-0.91,1.07-1.84,2-2.8,2.8
		c-0.8-0.8-1.83-1.45-3.11-1.95c2.28-1.59,3.99-3.62,5.12-6.08l3.69,0.58c-0.3,0.64-0.6,1.21-0.92,1.71h10.32l0.65-0.1l2.77,0.72
		c-1.12,2.23-2.23,3.99-3.35,5.26l-3.21-0.99c0.55-0.71,1-1.35,1.37-1.95h-3.89c0.55,1.57,1.73,2.76,3.55,3.55
		c1.53,0.66,3.61,1.15,6.25,1.47c-0.8,0.8-1.46,1.87-1.98,3.21c-0.02,0.07-0.05,0.13-0.07,0.17c-1.02-0.16-1.8-0.31-2.32-0.44V71.19
		z M142.63,46.79v3.14h-9.33v-3.14H142.63z M140.92,59.47v1.5h15.13v-1.5H140.92z M140.92,63.33v1.5h15.13v-1.5H140.92z
		 M140.92,67.16v1.54h15.13v-1.54H140.92z M146.63,56.98h11.72c-2.44-0.91-4.22-2.16-5.36-3.76
		C151.73,54.86,149.61,56.11,146.63,56.98z"/>
	<path d="M191.23,66.03l-2.56,3.21c-0.62-1.37-1.46-2.88-2.53-4.54v12.26h-3.83V64.63c-1.34,3.85-2.69,6.71-4.03,8.58
		c-0.3-1.05-0.92-2.48-1.88-4.3c1.62-1.96,3.1-4.82,4.44-8.58c0.07-0.18,0.12-0.34,0.17-0.48h-4v-3.86h5.3V44.54h3.83v11.44h5.19
		v3.86h-5.19v0.24c1.07,1.07,2.64,2.89,4.71,5.47C191.02,65.76,191.14,65.91,191.23,66.03z M181.67,54.52l-3.11,0.79
		c-0.07-2.28-0.57-4.9-1.5-7.86c-0.02-0.07-0.05-0.12-0.07-0.17l2.9-0.79C180.85,49.15,181.44,51.83,181.67,54.52z M188.47,46.32
		l3.48,0.79c-1.46,4.4-2.3,6.9-2.53,7.52c-0.11,0.23-0.21,0.43-0.27,0.62l-2.63-0.72C187.36,52.01,188.01,49.28,188.47,46.32z
		 M209.72,66.81l-4.17,0.79v9.43h-3.93v-8.75l-9.77,1.74l-0.62-3.86l10.39-1.88V44.37h3.93V63.6l3.55-0.68L209.72,66.81z
		 M191.61,57.9l1.95-3.01c2.6,1.41,4.55,2.76,5.88,4.03l-2.08,3.31c-1.14-1.25-2.92-2.62-5.33-4.1
		C191.86,58.05,191.72,57.97,191.61,57.9z M200.77,50.52l-2.12,3.11c-1.03-1.25-2.84-2.77-5.43-4.54l1.98-2.8
		C197.79,47.85,199.65,49.27,200.77,50.52z"/>
</g>
<g>
	<g>
		<path d="M54.74,112.06l-1.28-0.43c0.57-1.38,0.95-3.28,1.15-5.72l1.24,0.2c-0.13,2.19-0.48,4.12-1.04,5.78
			C54.77,111.96,54.75,112.02,54.74,112.06z M56.65,122.04v-20.33h1.65v20.33H56.65z M58.46,105.8l1.15-0.52
			c0.78,1.39,1.33,2.63,1.63,3.72L60,109.58C59.74,108.54,59.22,107.28,58.46,105.8z M68.24,119.69h5.57v1.59H60.22v-1.59h6.37
			v-5.57h-4.72v-1.52h4.72V108h-3.26c-0.46,1.39-0.98,2.54-1.54,3.44c-0.26-0.17-0.75-0.42-1.48-0.74c1.19-1.81,2.09-4.46,2.7-7.96
			l1.61,0.26c-0.22,1.12-0.49,2.25-0.8,3.41h2.78v-4.61h1.65v4.61h5.02V108h-5.02v4.61h4.54v1.52h-4.54V119.69z"/>
		<path d="M81.02,112.34h5.09c0,0.01-0.01,0.25-0.02,0.72c-0.2,4.2-0.46,6.75-0.76,7.63c-0.09,0.28-0.2,0.49-0.33,0.63
			c-0.33,0.38-0.81,0.59-1.43,0.63c-0.49,0.06-1.4,0.06-2.72,0c-0.07-0.62-0.22-1.11-0.46-1.46c0.72,0.07,1.57,0.11,2.54,0.11
			c0.33-0.01,0.58-0.09,0.74-0.24c0.38-0.42,0.65-2.58,0.83-6.48c0-0.01,0-0.03,0-0.04h-3.65c-0.61,3.86-1.9,6.6-3.87,8.24
			c-0.26-0.44-0.62-0.8-1.07-1.09c-0.03-0.01-0.05-0.03-0.07-0.04c1.9-1.52,3.08-4.22,3.54-8.09c0.1-0.83,0.18-1.79,0.24-2.89H77.2
			v-7.24h8.76v7.24h-4.72C81.21,110.48,81.14,111.27,81.02,112.34z M78.74,104.24v4.26h5.65v-4.26H78.74z M89.83,104.39v12.24h-1.61
			v-12.24H89.83z M93.63,102.15h1.65v17.7c0,0.97-0.3,1.6-0.89,1.89c-0.04,0.01-0.08,0.03-0.11,0.04c-0.55,0.19-1.89,0.28-4.02,0.28
			c-0.13-0.62-0.33-1.18-0.59-1.67c1.41,0.06,2.53,0.07,3.37,0.02c0.38-0.03,0.57-0.22,0.59-0.57V102.15z"/>
		<path d="M100.37,111.67c-0.61,0-1.04-0.28-1.3-0.83c-0.1-0.23-0.15-0.47-0.15-0.72c0-0.7,0.28-1.18,0.85-1.46
			c0.2-0.09,0.41-0.13,0.61-0.13c0.61,0,1.04,0.28,1.3,0.83c0.12,0.25,0.17,0.5,0.17,0.76c0,0.64-0.27,1.1-0.8,1.39
			C100.83,111.62,100.6,111.67,100.37,111.67z M100.37,120.63c-0.62,0-1.06-0.28-1.3-0.83c-0.1-0.22-0.15-0.45-0.15-0.7
			c0-0.67,0.27-1.14,0.8-1.43c0.22-0.1,0.44-0.15,0.65-0.15c0.58,0,1.01,0.27,1.3,0.8c0.12,0.25,0.17,0.51,0.17,0.78
			c0,0.67-0.29,1.13-0.87,1.39C100.78,120.58,100.57,120.63,100.37,120.63z"/>
		<path d="M114.65,113.97H123c0,0.01-0.02,0.26-0.07,0.74c-0.32,3.45-0.75,5.57-1.3,6.35c-0.09,0.1-0.17,0.19-0.24,0.26
			c-0.42,0.39-1.01,0.61-1.76,0.65c-0.83,0.03-1.98,0.01-3.46-0.06c-0.06-0.57-0.24-1.07-0.54-1.52c1.16,0.09,2.3,0.13,3.43,0.13
			c0.48-0.01,0.8-0.09,0.96-0.22c0.51-0.41,0.9-2.01,1.17-4.8h-6.98c-0.81,2.25-2.33,3.94-4.54,5.09c-1.19,0.61-2.62,1.1-4.3,1.48
			c-0.16-0.49-0.45-0.97-0.87-1.43c3.52-0.72,5.93-2.01,7.22-3.87c0.27-0.39,0.51-0.81,0.7-1.26h-7.28v-1.52h7.78
			c0.2-0.78,0.34-1.5,0.41-2.15h-6.41v-8.94h15.35v8.94h-7.24C114.92,112.68,114.8,113.4,114.65,113.97z M108.55,104.32v2.35h5.15
			v-2.35H108.55z M108.55,108.02v2.37h5.15v-2.37H108.55z M120.57,106.67v-2.35h-5.24v2.35H120.57z M120.57,110.39v-2.37h-5.24v2.37
			H120.57z"/>
		<path d="M64.76,169.04h8.78v1.46H54.26v-1.46h8.8v-2.41h-6.22v-1.33h6.22v-2.11h-5.46c-0.75,0.94-1.51,1.77-2.28,2.48
			c-0.42-0.42-0.89-0.77-1.41-1.04c1.52-1.15,2.77-2.62,3.74-4.41c0.13-0.25,0.25-0.48,0.35-0.7l1.61,0.46
			c-0.17,0.38-0.51,0.98-1,1.8h4.46V160h1.7v1.78h7.39v1.41h-7.39v2.11h6.48v1.33h-6.48V169.04z M71.28,151.65v7.85H56.54v-7.85
			H71.28z M69.61,154.91v-1.94H58.17v1.94H69.61z M69.61,158.17v-1.98H58.17v1.98H69.61z"/>
		<path d="M96.09,154.62H79.17v4.61c0,5.3-0.69,9.22-2.07,11.76c-0.45-0.41-0.91-0.71-1.37-0.91c1.25-2.36,1.87-5.99,1.87-10.87
			v-6.13h8.35v-2.33h1.7v2.33h8.44V154.62z M88.44,165.71v3.33h7.72v1.46H79.3v-1.46h7.54v-3.33h-6.11v-1.41h6.11v-8.76h1.59v6.5
			c1.78-1.33,2.9-3.38,3.35-6.15l1.5,0.2c-0.13,0.86-0.37,1.76-0.72,2.72c1.78,1.48,2.99,2.58,3.63,3.3l-1.04,1.09
			c-0.67-0.8-1.73-1.82-3.2-3.07c-0.67,1.22-1.46,2.2-2.37,2.94c-0.3-0.35-0.69-0.67-1.15-0.98v2.22h6.35v1.41H88.44z M82.87,155.89
			l1.56,0.17c-0.14,0.97-0.38,1.91-0.7,2.8c1.2,1.09,2.12,2.02,2.76,2.8l-1,1.07c-0.62-0.81-1.39-1.66-2.3-2.54
			c-0.62,1.28-1.43,2.33-2.41,3.17c-0.39-0.39-0.8-0.72-1.24-1C81.34,161,82.45,158.84,82.87,155.89z"/>
		<path d="M100.37,160.69c-0.61,0-1.04-0.28-1.3-0.83c-0.1-0.23-0.15-0.47-0.15-0.72c0-0.7,0.28-1.18,0.85-1.46
			c0.2-0.09,0.41-0.13,0.61-0.13c0.61,0,1.04,0.28,1.3,0.83c0.12,0.25,0.17,0.5,0.17,0.76c0,0.64-0.27,1.1-0.8,1.39
			C100.83,160.64,100.6,160.69,100.37,160.69z M100.37,169.65c-0.62,0-1.06-0.28-1.3-0.83c-0.1-0.22-0.15-0.45-0.15-0.7
			c0-0.67,0.27-1.14,0.8-1.43c0.22-0.1,0.44-0.15,0.65-0.15c0.58,0,1.01,0.27,1.3,0.8c0.12,0.25,0.17,0.51,0.17,0.78
			c0,0.67-0.29,1.13-0.87,1.39C100.78,169.6,100.57,169.65,100.37,169.65z"/>
		<path d="M106.37,161.58V156c-0.33,0.48-0.71,0.93-1.13,1.35c-0.26-0.41-0.57-0.78-0.93-1.13c1.38-1.35,2.46-3.12,3.24-5.33
			c0.01-0.06,0.03-0.1,0.04-0.13l1.35,0.35c-0.2,0.58-0.5,1.28-0.89,2.09h1.87c0.46-0.93,0.77-1.65,0.91-2.15l1.37,0.37
			c-0.22,0.45-0.54,1.04-0.98,1.78h3.11v1.15h-3.13v1.26h2.65v0.59c1.38-1.48,2.45-3.29,3.22-5.44l1.33,0.37
			c-0.15,0.41-0.43,1.09-0.87,2.07h1.78c0.49-0.99,0.82-1.7,0.98-2.15l1.39,0.35c-0.13,0.25-0.47,0.85-1.02,1.8h3.44v1.15h-3.3v1.26
			h2.85v1.09h-2.85v1.3h2.85v1.11h-2.85v1.3h3.65v1.17h-8.59V156c-0.38,0.54-0.78,1.04-1.22,1.5c-0.25-0.33-0.51-0.65-0.78-0.94
			v0.13h-2.65v1.3h2.65v1.11h-2.65v1.3h3.39v1.17H106.37z M121.02,162.89l1.11,0.7c-1.15,1.77-2.92,3.25-5.33,4.46
			c2.25,0.72,4.84,1.22,7.78,1.5c-0.32,0.32-0.66,0.84-1.02,1.57c-3.39-0.38-6.35-1.09-8.87-2.13c-2.67,1.01-5.8,1.72-9.41,2.11
			c-0.2-0.64-0.44-1.14-0.72-1.5c3.07-0.26,5.8-0.77,8.2-1.52c-1.64-0.88-3.03-1.97-4.17-3.26l0.98-0.46h-3.74v-1.37h14.89
			L121.02,162.89z M109.83,155.6v-1.26h-2.04v1.26H109.83z M109.83,158v-1.3h-2.04v1.3H109.83z M109.83,160.41v-1.3h-2.04v1.3
			H109.83z M119.44,164.34h-9.15c1.12,1.16,2.63,2.15,4.54,2.96C116.81,166.46,118.35,165.47,119.44,164.34z M119.39,155.6v-1.26
			h-2.11v1.26H119.39z M119.39,158v-1.3h-2.11v1.3H119.39z M119.39,160.41v-1.3h-2.11v1.3H119.39z"/>
		<path d="M146.92,160.62v1.63h-9.17v6.67c0,0.9-0.25,1.48-0.76,1.74c-0.1,0.06-0.22,0.11-0.35,0.15c-0.7,0.22-2.16,0.31-4.39,0.28
			c-0.16-0.59-0.4-1.16-0.72-1.7c1.78,0.06,3.08,0.07,3.89,0.04c0.38-0.01,0.58-0.13,0.61-0.35c0.01-0.06,0.02-0.12,0.02-0.17v-6.67
			h-9.2v-1.63h9.2v-3.57h1.04c1.67-0.91,3.2-1.97,4.59-3.17h-12.52v-1.59h14.26l0.41-0.11l1.2,0.91c-1.68,1.7-3.78,3.28-6.28,4.76
			c-0.35,0.2-0.68,0.39-1,0.57v2.2H146.92z"/>
		<path d="M63.02,209.65v-5.09h-6.98v3.11h-1.5v-4.3h8.48v-1.37H55.8v-1.28h16.17v1.28h-7.35v1.37h8.63v4.3h-1.54v-3.11h-7.09v5.09
			H63.02z M66.2,218.58h4.96c0.61,0,1-0.17,1.17-0.52c0.16-0.35,0.27-1.05,0.33-2.11c0.43,0.28,0.92,0.46,1.46,0.57
			c-0.13,1.48-0.42,2.43-0.87,2.85c-0.41,0.35-1.07,0.52-1.98,0.52h-5.13c-1.45,0-2.37-0.21-2.76-0.63
			c-0.28-0.33-0.41-0.86-0.41-1.59v-0.72h-4.94v1.17h-1.59v-7.74h15v6.57h-6.89v0.72c0,0.43,0.14,0.7,0.41,0.8
			C65.2,218.54,65.62,218.58,66.2,218.58z M56.76,209.06v-1.04h5.13v1.04H56.76z M61.89,205.75v1.02h-4.7v-1.02H61.89z M62.96,211.6
			h-4.94v1.52h4.94V211.6z M58.02,215.75h4.94v-1.5h-4.94V215.75z M69.83,213.12v-1.52h-5.28v1.52H69.83z M64.54,215.75h5.28v-1.5
			h-5.28V215.75z M65.8,205.75h4.76v1.02H65.8V205.75z M65.8,209.06v-1.04h5.3v1.04H65.8z"/>
		<path d="M75.96,204.84v-1.35h8.24v1.35H75.96z M83.52,212.62v6.43h-5.11v1h-1.46v-7.43H83.52z M83.46,206.56v1.33H77v-1.33H83.46z
			 M77,210.91v-1.3h6.46v1.3H77z M83.41,200.54v1.33h-6.28v-1.33H83.41z M82.09,213.97h-3.67v3.72h3.67V213.97z M96.41,207.8H91.2
			v3.72h4.2v8.44h-1.65v-0.98H87.2v1.11h-1.57v-8.57h3.91v-3.72h-5.2v-1.59h5.2v-3.54c-1.55,0.19-2.95,0.33-4.2,0.43
			c-0.04-0.38-0.2-0.84-0.46-1.39c4.32-0.42,7.49-0.95,9.52-1.59l1.2,1.35c-1.22,0.36-2.69,0.68-4.41,0.96v3.78h5.22V207.8z
			 M93.74,217.47v-4.46H87.2v4.46H93.74z"/>
		<path d="M100.37,209.71c-0.61,0-1.04-0.28-1.3-0.83c-0.1-0.23-0.15-0.47-0.15-0.72c0-0.7,0.28-1.18,0.85-1.46
			c0.2-0.09,0.41-0.13,0.61-0.13c0.61,0,1.04,0.28,1.3,0.83c0.12,0.25,0.17,0.5,0.17,0.76c0,0.64-0.27,1.1-0.8,1.39
			C100.83,209.66,100.6,209.71,100.37,209.71z M100.37,218.67c-0.62,0-1.06-0.28-1.3-0.83c-0.1-0.22-0.15-0.45-0.15-0.7
			c0-0.67,0.27-1.14,0.8-1.43c0.22-0.1,0.44-0.15,0.65-0.15c0.58,0,1.01,0.27,1.3,0.8c0.12,0.25,0.17,0.51,0.17,0.78
			c0,0.67-0.29,1.13-0.87,1.39C100.78,218.62,100.57,218.67,100.37,218.67z"/>
		<path d="M109.65,218.67c-2.03,0-3.47-1.12-4.33-3.37c-0.52-1.36-0.78-3.07-0.78-5.13c0-4.07,0.96-6.68,2.87-7.83
			c0.67-0.39,1.41-0.59,2.24-0.59c2.07,0,3.52,1.15,4.35,3.46c0.48,1.33,0.72,2.99,0.72,4.96c0,3.99-0.91,6.59-2.72,7.83
			C111.31,218.44,110.52,218.67,109.65,218.67z M109.65,217.06c1.46,0,2.41-1.23,2.85-3.7c0.16-0.93,0.24-1.99,0.24-3.2
			c0-4.06-0.85-6.29-2.54-6.7c-0.19-0.04-0.37-0.07-0.54-0.07c-1.59,0-2.58,1.36-2.96,4.07c-0.12,0.8-0.17,1.7-0.17,2.7
			c0,3.93,0.78,6.18,2.35,6.76C109.13,217.02,109.39,217.06,109.65,217.06z"/>
		<path d="M117.09,217.02l1.13-1.28c0.74,0.81,1.65,1.23,2.74,1.24c1.74,0,2.93-1.09,3.59-3.26c0.29-0.99,0.46-2.17,0.5-3.54
			c-0.9,1.13-1.96,1.79-3.2,1.98c-0.19,0.03-0.38,0.04-0.57,0.04c-1.93,0-3.25-0.79-3.98-2.37c-0.35-0.78-0.52-1.7-0.52-2.76
			c0-1.77,0.59-3.17,1.76-4.2c0.84-0.74,1.81-1.11,2.91-1.11c1.9,0,3.34,0.85,4.33,2.54c0.77,1.35,1.15,3.09,1.15,5.22
			c0,3.99-0.96,6.7-2.89,8.15c-0.88,0.67-1.89,1-3.02,1C119.44,218.65,118.13,218.1,117.09,217.02z M121.61,210.69
			c1.26-0.01,2.4-0.75,3.41-2.2c-0.19-2.99-1.13-4.67-2.83-5.04c-0.25-0.06-0.49-0.09-0.74-0.09c-0.99,0-1.74,0.49-2.26,1.46
			c-0.33,0.65-0.5,1.4-0.5,2.24c0,1.8,0.58,2.93,1.74,3.41C120.8,210.62,121.19,210.69,121.61,210.69z"/>
		<path d="M129.18,212.93v-1.56h5.7v1.56H129.18z"/>
		<path d="M146.96,203.43l-1.11,1.26c-0.7-0.81-1.57-1.22-2.63-1.24c-1.83,0-3.07,1.07-3.74,3.22c-0.29,1-0.45,2.19-0.48,3.57
			c0.88-1.07,1.92-1.71,3.11-1.91c0.22-0.04,0.42-0.07,0.61-0.07c2.03,0,3.39,0.85,4.09,2.54c0.29,0.74,0.43,1.6,0.43,2.59
			c0,1.77-0.58,3.16-1.74,4.17c-0.86,0.74-1.83,1.11-2.93,1.11c-1.88,0-3.32-0.88-4.3-2.63c-0.77-1.39-1.15-3.2-1.15-5.44
			c0-3.87,0.99-6.5,2.98-7.89c0.9-0.64,1.92-0.96,3.07-0.96C144.65,201.77,145.92,202.33,146.96,203.43z M142.57,217.1
			c0.97,0,1.72-0.49,2.24-1.46c0.35-0.65,0.52-1.41,0.52-2.26c0-1.9-0.65-3.05-1.93-3.46c-0.3-0.1-0.64-0.15-1-0.15
			c-1.2,0-2.28,0.65-3.24,1.94c-0.04,0.06-0.08,0.11-0.11,0.15c0.2,2.94,1.09,4.64,2.65,5.11
			C141.99,217.06,142.28,217.1,142.57,217.1z"/>
		<path d="M154.44,218.67c-1.78,0-3.17-0.54-4.17-1.63c-0.7-0.77-1.04-1.67-1.04-2.7c0-1.64,0.76-2.99,2.28-4.07
			c0.23-0.16,0.47-0.3,0.72-0.44v-0.11c-1.45-1.03-2.18-2.28-2.2-3.76c0-1.48,0.59-2.61,1.76-3.39c0.77-0.51,1.67-0.76,2.72-0.76
			c1.74,0,3.01,0.62,3.8,1.85c0.45,0.71,0.67,1.53,0.67,2.46c0,1.29-0.59,2.49-1.78,3.59c-0.14,0.13-0.28,0.25-0.41,0.35v0.11
			c1.83,1.07,2.75,2.5,2.76,4.28c0,1.38-0.59,2.46-1.76,3.26C156.86,218.35,155.74,218.67,154.44,218.67z M154.48,217.17
			c1.28,0,2.19-0.44,2.74-1.33c0.26-0.44,0.39-0.91,0.39-1.44c0-1.16-0.65-2.12-1.96-2.87c-0.49-0.29-1.28-0.65-2.37-1.09
			c-1.41,1.04-2.15,2.28-2.22,3.7c0,1.07,0.46,1.9,1.39,2.48C153.05,216.99,153.73,217.17,154.48,217.17z M155.55,209.51
			c1.12-1,1.68-2.09,1.7-3.28c0-1.13-0.41-1.96-1.24-2.5c-0.45-0.28-0.96-0.41-1.54-0.41c-1.03,0-1.78,0.41-2.24,1.24
			c-0.23,0.42-0.35,0.89-0.35,1.41c0,1.14,0.67,2.07,2,2.78C154.28,208.99,154.84,209.24,155.55,209.51z"/>
		<path d="M171.66,203.43l-1.11,1.26c-0.7-0.81-1.57-1.22-2.63-1.24c-1.83,0-3.07,1.07-3.74,3.22c-0.29,1-0.45,2.19-0.48,3.57
			c0.88-1.07,1.92-1.71,3.11-1.91c0.22-0.04,0.42-0.07,0.61-0.07c2.03,0,3.39,0.85,4.09,2.54c0.29,0.74,0.43,1.6,0.43,2.59
			c0,1.77-0.58,3.16-1.74,4.17c-0.86,0.74-1.83,1.11-2.93,1.11c-1.88,0-3.32-0.88-4.3-2.63c-0.77-1.39-1.15-3.2-1.15-5.44
			c0-3.87,0.99-6.5,2.98-7.89c0.9-0.64,1.92-0.96,3.07-0.96C169.34,201.77,170.61,202.33,171.66,203.43z M167.27,217.1
			c0.97,0,1.72-0.49,2.24-1.46c0.35-0.65,0.52-1.41,0.52-2.26c0-1.9-0.65-3.05-1.93-3.46c-0.3-0.1-0.64-0.15-1-0.15
			c-1.2,0-2.28,0.65-3.24,1.94c-0.04,0.06-0.08,0.11-0.11,0.15c0.2,2.94,1.09,4.64,2.65,5.11
			C166.69,217.06,166.98,217.1,167.27,217.1z"/>
		<path d="M184.01,203.43l-1.11,1.26c-0.7-0.81-1.57-1.22-2.63-1.24c-1.83,0-3.07,1.07-3.74,3.22c-0.29,1-0.45,2.19-0.48,3.57
			c0.88-1.07,1.92-1.71,3.11-1.91c0.22-0.04,0.42-0.07,0.61-0.07c2.03,0,3.39,0.85,4.09,2.54c0.29,0.74,0.43,1.6,0.43,2.59
			c0,1.77-0.58,3.16-1.74,4.17c-0.86,0.74-1.83,1.11-2.93,1.11c-1.88,0-3.32-0.88-4.3-2.63c-0.77-1.39-1.15-3.2-1.15-5.44
			c0-3.87,0.99-6.5,2.98-7.89c0.9-0.64,1.92-0.96,3.07-0.96C181.69,201.77,182.96,202.33,184.01,203.43z M179.61,217.1
			c0.97,0,1.72-0.49,2.24-1.46c0.35-0.65,0.52-1.41,0.52-2.26c0-1.9-0.65-3.05-1.93-3.46c-0.3-0.1-0.64-0.15-1-0.15
			c-1.2,0-2.28,0.65-3.24,1.94c-0.04,0.06-0.08,0.11-0.11,0.15c0.2,2.94,1.09,4.64,2.65,5.11
			C179.03,217.06,179.32,217.1,179.61,217.1z"/>
		<path d="M191.48,218.67c-1.78,0-3.17-0.54-4.17-1.63c-0.7-0.77-1.04-1.67-1.04-2.7c0-1.64,0.76-2.99,2.28-4.07
			c0.23-0.16,0.47-0.3,0.72-0.44v-0.11c-1.45-1.03-2.18-2.28-2.2-3.76c0-1.48,0.59-2.61,1.76-3.39c0.77-0.51,1.67-0.76,2.72-0.76
			c1.74,0,3.01,0.62,3.8,1.85c0.45,0.71,0.67,1.53,0.67,2.46c0,1.29-0.59,2.49-1.78,3.59c-0.14,0.13-0.28,0.25-0.41,0.35v0.11
			c1.83,1.07,2.75,2.5,2.76,4.28c0,1.38-0.59,2.46-1.76,3.26C193.9,218.35,192.79,218.67,191.48,218.67z M191.53,217.17
			c1.28,0,2.19-0.44,2.74-1.33c0.26-0.44,0.39-0.91,0.39-1.44c0-1.16-0.65-2.12-1.96-2.87c-0.49-0.29-1.28-0.65-2.37-1.09
			c-1.41,1.04-2.15,2.28-2.22,3.7c0,1.07,0.46,1.9,1.39,2.48C190.1,216.99,190.77,217.17,191.53,217.17z M192.59,209.51
			c1.12-1,1.68-2.09,1.7-3.28c0-1.13-0.41-1.96-1.24-2.5c-0.45-0.28-0.96-0.41-1.54-0.41c-1.03,0-1.78,0.41-2.24,1.24
			c-0.23,0.42-0.35,0.89-0.35,1.41c0,1.14,0.67,2.07,2,2.78C191.32,208.99,191.88,209.24,192.59,209.51z"/>
		<path d="M198.59,218.38v-1.2c4.04-3.54,6.44-6.46,7.2-8.78c0.19-0.61,0.28-1.2,0.28-1.76c0-1.49-0.54-2.48-1.61-2.96
			c-0.42-0.17-0.88-0.26-1.39-0.26c-1.2,0.01-2.33,0.65-3.39,1.89l-1.17-1.15c1.28-1.41,2.62-2.2,4.04-2.37
			c0.26-0.03,0.51-0.04,0.76-0.04c1.83,0,3.16,0.67,4,2c0.49,0.8,0.74,1.74,0.74,2.83c0,2.29-1.38,4.93-4.13,7.91
			c-0.67,0.73-1.42,1.49-2.26,2.28c1.32-0.1,2.21-0.15,2.67-0.15h4.52v1.76H198.59z"/>
		<path d="M210.94,218.38v-1.2c4.04-3.54,6.44-6.46,7.2-8.78c0.19-0.61,0.28-1.2,0.28-1.76c0-1.49-0.54-2.48-1.61-2.96
			c-0.42-0.17-0.88-0.26-1.39-0.26c-1.2,0.01-2.33,0.65-3.39,1.89l-1.17-1.15c1.28-1.41,2.62-2.2,4.04-2.37
			c0.26-0.03,0.51-0.04,0.76-0.04c1.83,0,3.16,0.67,4,2c0.49,0.8,0.74,1.74,0.74,2.83c0,2.29-1.38,4.93-4.13,7.91
			c-0.67,0.73-1.42,1.49-2.26,2.28c1.32-0.1,2.21-0.15,2.67-0.15h4.52v1.76H210.94z"/>
		<path d="M233.4,203.43l-1.11,1.26c-0.7-0.81-1.57-1.22-2.63-1.24c-1.83,0-3.07,1.07-3.74,3.22c-0.29,1-0.45,2.19-0.48,3.57
			c0.88-1.07,1.92-1.71,3.11-1.91c0.22-0.04,0.42-0.07,0.61-0.07c2.03,0,3.39,0.85,4.09,2.54c0.29,0.74,0.43,1.6,0.43,2.59
			c0,1.77-0.58,3.16-1.74,4.17c-0.86,0.74-1.83,1.11-2.93,1.11c-1.88,0-3.32-0.88-4.3-2.63c-0.77-1.39-1.15-3.2-1.15-5.44
			c0-3.87,0.99-6.5,2.98-7.89c0.9-0.64,1.92-0.96,3.07-0.96C231.09,201.77,232.36,202.33,233.4,203.43z M229.01,217.1
			c0.97,0,1.72-0.49,2.24-1.46c0.35-0.65,0.52-1.41,0.52-2.26c0-1.9-0.65-3.05-1.93-3.46c-0.3-0.1-0.64-0.15-1-0.15
			c-1.2,0-2.28,0.65-3.24,1.94c-0.04,0.06-0.08,0.11-0.11,0.15c0.2,2.94,1.09,4.64,2.65,5.11
			C228.43,217.06,228.72,217.1,229.01,217.1z"/>
	</g>
</g>
<g>
	<path d="M312.77,119.74h9.02v1.61h-19.74v-1.61h9.02v-5.65h-6.61v-1.59h6.61v-4.87h-5.24c-0.75,1.48-1.53,2.69-2.33,3.63
		c-0.42-0.36-0.92-0.69-1.5-0.98c1.71-1.83,3.06-4.45,4.04-7.87c0.03-0.12,0.06-0.22,0.09-0.33l1.67,0.37
		c-0.39,1.35-0.81,2.54-1.26,3.57h4.52v-4.28h1.7v4.28h7.98v1.61h-7.98v4.87h7.15v1.59h-7.15V119.74z"/>
	<path d="M327.01,103.26h14.46v18.44h-1.74v-1.35h-11.04v1.46h-1.67V103.26z M339.73,104.87h-11.04v6.02h11.04V104.87z
		 M328.68,118.71h11.04v-6.2h-11.04V118.71z"/>
	<path d="M348.36,111.67c-0.61,0-1.04-0.28-1.3-0.83c-0.1-0.23-0.15-0.47-0.15-0.72c0-0.7,0.28-1.18,0.85-1.46
		c0.2-0.09,0.41-0.13,0.61-0.13c0.61,0,1.04,0.28,1.3,0.83c0.12,0.25,0.17,0.5,0.17,0.76c0,0.64-0.27,1.1-0.8,1.39
		C348.82,111.62,348.59,111.67,348.36,111.67z M348.36,120.63c-0.62,0-1.06-0.28-1.3-0.83c-0.1-0.22-0.15-0.45-0.15-0.7
		c0-0.67,0.27-1.14,0.8-1.43c0.22-0.1,0.44-0.15,0.65-0.15c0.58,0,1.01,0.27,1.3,0.8c0.12,0.25,0.17,0.51,0.17,0.78
		c0,0.67-0.29,1.13-0.87,1.39C348.76,120.58,348.56,120.63,348.36,120.63z"/>
	<path d="M352.73,118.97l1.13-1.28c0.74,0.81,1.65,1.23,2.74,1.24c1.74,0,2.93-1.09,3.59-3.26c0.29-0.99,0.46-2.17,0.5-3.54
		c-0.9,1.13-1.96,1.79-3.2,1.98c-0.19,0.03-0.38,0.04-0.57,0.04c-1.93,0-3.25-0.79-3.98-2.37c-0.35-0.78-0.52-1.7-0.52-2.76
		c0-1.77,0.59-3.17,1.76-4.2c0.84-0.74,1.81-1.11,2.91-1.11c1.9,0,3.34,0.85,4.33,2.54c0.77,1.35,1.15,3.09,1.15,5.22
		c0,3.99-0.96,6.7-2.89,8.15c-0.88,0.67-1.89,1-3.02,1C355.08,120.61,353.77,120.06,352.73,118.97z M357.25,112.65
		c1.26-0.01,2.4-0.75,3.41-2.2c-0.19-2.99-1.13-4.67-2.83-5.04c-0.25-0.06-0.49-0.09-0.74-0.09c-0.99,0-1.74,0.49-2.26,1.46
		c-0.33,0.65-0.5,1.4-0.5,2.24c0,1.8,0.58,2.94,1.74,3.41C356.44,112.58,356.83,112.65,357.25,112.65z"/>
	<path d="M364.77,120.34v-1.2c4.04-3.54,6.44-6.46,7.2-8.78c0.19-0.61,0.28-1.2,0.28-1.76c0-1.49-0.54-2.48-1.61-2.96
		c-0.42-0.17-0.88-0.26-1.39-0.26c-1.2,0.01-2.33,0.65-3.39,1.89l-1.17-1.15c1.28-1.41,2.62-2.2,4.04-2.37
		c0.26-0.03,0.51-0.04,0.76-0.04c1.83,0,3.16,0.67,4,2c0.49,0.8,0.74,1.74,0.74,2.83c0,2.29-1.38,4.93-4.13,7.91
		c-0.67,0.73-1.42,1.49-2.26,2.28c1.32-0.1,2.21-0.15,2.67-0.15h4.52v1.76H364.77z"/>
	<path d="M376.38,124.32l6.67-21.63h1.48l-6.65,21.63H376.38z"/>
	<path d="M391.06,120.63c-2.03,0-3.47-1.12-4.33-3.37c-0.52-1.36-0.78-3.07-0.78-5.13c0-4.07,0.96-6.68,2.87-7.83
		c0.67-0.39,1.41-0.59,2.24-0.59c2.07,0,3.52,1.15,4.35,3.46c0.48,1.33,0.72,2.99,0.72,4.96c0,3.99-0.91,6.59-2.72,7.83
		C392.71,120.4,391.93,120.63,391.06,120.63z M391.06,119.02c1.46,0,2.41-1.23,2.85-3.7c0.16-0.93,0.24-1.99,0.24-3.2
		c0-4.06-0.85-6.29-2.54-6.7c-0.19-0.04-0.37-0.07-0.54-0.07c-1.59,0-2.58,1.36-2.96,4.07c-0.12,0.8-0.17,1.7-0.17,2.7
		c0,3.93,0.78,6.18,2.35,6.76C390.53,118.97,390.8,119.02,391.06,119.02z"/>
	<path d="M408.3,105.39l-1.11,1.26c-0.7-0.81-1.57-1.22-2.63-1.24c-1.83,0-3.07,1.07-3.74,3.22c-0.29,1-0.45,2.19-0.48,3.56
		c0.88-1.07,1.92-1.71,3.11-1.91c0.22-0.04,0.42-0.06,0.61-0.06c2.03,0,3.39,0.85,4.09,2.54c0.29,0.74,0.43,1.6,0.43,2.59
		c0,1.77-0.58,3.16-1.74,4.17c-0.86,0.74-1.83,1.11-2.93,1.11c-1.88,0-3.32-0.88-4.3-2.63c-0.77-1.39-1.15-3.2-1.15-5.44
		c0-3.87,0.99-6.5,2.98-7.89c0.9-0.64,1.92-0.96,3.07-0.96C405.98,103.73,407.25,104.29,408.3,105.39z M403.9,119.06
		c0.97,0,1.72-0.49,2.24-1.46c0.35-0.65,0.52-1.41,0.52-2.26c0-1.9-0.65-3.05-1.93-3.46c-0.3-0.1-0.64-0.15-1-0.15
		c-1.2,0-2.28,0.65-3.24,1.94c-0.04,0.06-0.08,0.11-0.11,0.15c0.2,2.94,1.09,4.65,2.65,5.11
		C403.32,119.02,403.61,119.06,403.9,119.06z"/>
	<path d="M409.8,124.32l6.67-21.63h1.48l-6.65,21.63H409.8z"/>
	<path d="M420.23,120.34v-1.7h3.63v-12.17h-2.89v-1.28c1.33-0.25,2.46-0.64,3.39-1.17h1.54v14.63h3.28v1.7H420.23z"/>
	<path d="M441.71,105.39l-1.11,1.26c-0.7-0.81-1.57-1.22-2.63-1.24c-1.83,0-3.07,1.07-3.74,3.22c-0.29,1-0.45,2.19-0.48,3.56
		c0.88-1.07,1.92-1.71,3.11-1.91c0.22-0.04,0.42-0.06,0.61-0.06c2.03,0,3.39,0.85,4.09,2.54c0.29,0.74,0.43,1.6,0.43,2.59
		c0,1.77-0.58,3.16-1.74,4.17c-0.86,0.74-1.83,1.11-2.93,1.11c-1.88,0-3.32-0.88-4.3-2.63c-0.77-1.39-1.15-3.2-1.15-5.44
		c0-3.87,0.99-6.5,2.98-7.89c0.9-0.64,1.92-0.96,3.07-0.96C439.4,103.73,440.67,104.29,441.71,105.39z M437.32,119.06
		c0.97,0,1.72-0.49,2.24-1.46c0.35-0.65,0.52-1.41,0.52-2.26c0-1.9-0.65-3.05-1.93-3.46c-0.3-0.1-0.64-0.15-1-0.15
		c-1.2,0-2.28,0.65-3.24,1.94c-0.04,0.06-0.08,0.11-0.11,0.15c0.2,2.94,1.09,4.65,2.65,5.11
		C436.74,119.02,437.03,119.06,437.32,119.06z"/>
	<path d="M302.83,163.36l1.43,0.26c-0.35,2.39-0.88,4.28-1.59,5.65c-0.35-0.26-0.78-0.47-1.28-0.63
		C302.08,167.4,302.56,165.64,302.83,163.36z M308.66,161.71l-1.98,0.13v9.26h-1.46v-9.17c-1.19,0.09-2.36,0.15-3.5,0.2l-0.13-1.46
		l1.46-0.06c0.39-0.51,0.88-1.2,1.48-2.07c-0.73-1.04-1.68-2.09-2.87-3.15l0.85-1.07c0.16,0.13,0.38,0.32,0.65,0.57
		c0.7-1.14,1.36-2.52,2-4.13l1.43,0.59c-1.07,2.07-1.91,3.56-2.5,4.46c0.39,0.41,0.82,0.89,1.28,1.46c0.78-1.25,1.53-2.57,2.24-3.98
		l1.41,0.61c-1.59,2.67-3.08,4.88-4.46,6.63c1.7-0.07,2.87-0.12,3.52-0.15c-0.28-0.62-0.62-1.28-1.04-1.98l1.15-0.46
		c0.97,1.54,1.64,2.97,2.02,4.3c0.03,0.09,0.05,0.17,0.07,0.24l-1.22,0.54C309.01,162.76,308.88,162.32,308.66,161.71z
		 M307.42,163.6l1.2-0.41c0.71,1.46,1.19,2.82,1.43,4.07l-1.26,0.41C308.54,166.41,308.09,165.05,307.42,163.6z M322.01,165.6v1.52
		h-5.24v3.91h-1.59v-3.91h-5v-1.52h5v-1.96h-4.3v-7.7h4.3v-5.22h1.59v1.87h4.91v1.5h-4.91v1.85h4.59v7.7h-4.59v1.96H322.01z
		 M312.4,157.28v1.87h7.39v-1.87H312.4z M312.4,160.39v1.91h7.39v-1.91H312.4z"/>
	<path d="M326.96,162.71h4.3c0,0.01-0.01,0.24-0.04,0.67c-0.28,3.74-0.64,6.01-1.09,6.8c-0.07,0.12-0.15,0.21-0.22,0.28
		c-0.33,0.35-0.78,0.54-1.35,0.59c-0.59,0.04-1.36,0.04-2.3-0.02c-0.03-0.51-0.17-0.99-0.43-1.43c0.62,0.06,1.33,0.09,2.13,0.09
		c0.33,0.01,0.57-0.06,0.72-0.22c0.42-0.42,0.75-2.21,0.98-5.37h-3.02c-0.15,0.55-0.27,1.02-0.37,1.41l-1.48-0.26
		c0.46-1.58,0.83-3.08,1.11-4.5h-1.91v-1.48h8.33v1.48h-4.89C327.41,160.8,327.25,161.45,326.96,162.71z M331.36,151.58v6.13h-6.35
		v-6.13H331.36z M329.81,156.34v-3.39h-3.33v3.39H329.81z M334.42,156.49v4.3c-0.01,4.64-0.8,8.1-2.37,10.39
		c-0.29-0.33-0.69-0.62-1.2-0.87c-0.03-0.01-0.05-0.03-0.07-0.04c1.41-2.04,2.12-5.12,2.13-9.24c0-0.09,0-0.17,0-0.24v-5.67h4.35
		v-4.39h1.59v1.57h4.48v1.33h-4.48v1.5h4.3l0.24-0.07l1.04,0.26c-0.3,1.55-0.61,2.86-0.91,3.93l-1.24-0.3
		c0.19-0.94,0.33-1.76,0.44-2.46H334.42z M336.2,163.3h1.46c-0.12,2.62-0.54,4.54-1.28,5.74c-0.55,0.88-1.3,1.59-2.26,2.11
		c-0.25-0.48-0.57-0.88-0.96-1.2c1.35-0.67,2.22-1.78,2.63-3.33C335.99,165.81,336.13,164.7,336.2,163.3z M339.53,161.12h2.04
		c0.3,0,0.49-0.11,0.57-0.33c0.06-0.2,0.09-0.56,0.11-1.07c0.22,0.15,0.64,0.3,1.26,0.48c-0.09,1.06-0.34,1.7-0.76,1.93
		c-0.23,0.13-0.56,0.2-0.98,0.2h-2.41c-0.96,0-1.55-0.17-1.78-0.5c-0.16-0.26-0.24-0.67-0.24-1.22v-0.89l-2.26,0.22l-0.15-1.15
		l2.41-0.26v-1.91h1.5v1.76l2.65-0.26l0.15,1.15l-2.8,0.28v1.04c0,0.28,0.09,0.43,0.26,0.48
		C339.2,161.11,339.34,161.12,339.53,161.12z M341.55,169.23h0.78c0.29,0,0.5-0.04,0.63-0.11c0.14-0.09,0.25-0.25,0.3-0.48
		c0.06-0.33,0.09-1.07,0.09-2.2c0.3,0.28,0.71,0.5,1.22,0.67c-0.03,1.25-0.1,2.09-0.22,2.52c-0.13,0.35-0.37,0.63-0.72,0.85
		c-0.28,0.14-0.67,0.22-1.18,0.22h-1.24c-0.61-0.01-1.05-0.13-1.33-0.35c-0.28-0.23-0.43-0.64-0.46-1.22c0-0.13,0-0.28,0-0.44v-5.41
		h1.43v5.44c0.01,0.19,0.07,0.32,0.15,0.39C341.19,169.2,341.36,169.23,341.55,169.23z"/>
	<path d="M348.36,160.69c-0.61,0-1.04-0.28-1.3-0.83c-0.1-0.23-0.15-0.47-0.15-0.72c0-0.7,0.28-1.18,0.85-1.46
		c0.2-0.09,0.41-0.13,0.61-0.13c0.61,0,1.04,0.28,1.3,0.83c0.12,0.25,0.17,0.5,0.17,0.76c0,0.64-0.27,1.1-0.8,1.39
		C348.82,160.64,348.59,160.69,348.36,160.69z M348.36,169.65c-0.62,0-1.06-0.28-1.3-0.83c-0.1-0.22-0.15-0.45-0.15-0.7
		c0-0.67,0.27-1.14,0.8-1.43c0.22-0.1,0.44-0.15,0.65-0.15c0.58,0,1.01,0.27,1.3,0.8c0.12,0.25,0.17,0.51,0.17,0.78
		c0,0.67-0.29,1.13-0.87,1.39C348.76,169.6,348.56,169.65,348.36,169.65z"/>
	<path d="M353.27,162.54c-0.33-0.26-0.66-0.51-0.98-0.74c0.68-0.61,1.22-1.38,1.61-2.33c0.03-0.06,0.05-0.11,0.06-0.15l1.15,0.54
		C354.47,161.1,353.85,161.99,353.27,162.54z M358.6,162.45c-0.06-0.07-0.2-0.2-0.43-0.39l-0.33,0.65
		c-0.16,0.33-0.28,0.58-0.35,0.74h5.91v1.28h-2c-0.32,1.36-0.86,2.46-1.61,3.3c1.03,0.54,1.82,0.99,2.37,1.37l-0.8,1.15
		c-0.56-0.42-1.45-0.94-2.65-1.57c-1.28,0.93-3.17,1.6-5.7,2.02c-0.13-0.46-0.36-0.89-0.7-1.28c2.19-0.28,3.84-0.75,4.96-1.44
		c-0.96-0.39-1.62-0.65-2-0.78l-0.3,0.54l-1.28-0.59c0.61-1.03,1.12-1.94,1.54-2.74h-2.83v-1.28h3.5c0.52-1.03,0.8-1.6,0.85-1.72
		l1.39,0.33c-0.13-0.1-0.29-0.22-0.48-0.37c0.72-0.59,1.29-1.34,1.7-2.24c0.01-0.04,0.03-0.08,0.04-0.11l1.15,0.54
		C359.9,161,359.25,161.86,358.6,162.45z M353.21,159.04v-7.39h4.41v7.39H353.21z M354.32,152.69v1.07h2.13v-1.07H354.32z
		 M354.32,154.78v1.07h2.13v-1.07H354.32z M354.32,156.89v1.11h2.13v-1.11H354.32z M357.77,161.12l-0.98,0.48
		c-0.16-0.45-0.49-1.04-0.98-1.76l0.96-0.41C357.26,160.12,357.6,160.69,357.77,161.12z M356.27,165.76
		c-0.16,0.3-0.28,0.52-0.35,0.65c0.62,0.2,1.47,0.54,2.54,1c0.67-0.7,1.15-1.59,1.46-2.67h-3.11
		C356.7,164.97,356.52,165.31,356.27,165.76z M363.1,159.04h-4.54v-7.39h4.54V159.04z M361.9,152.69h-2.22v1.07h2.22V152.69z
		 M361.9,154.78h-2.22v1.07h2.22V154.78z M361.9,156.89h-2.22v1.11h2.22V156.89z M363.58,161.73l-1,0.5
		c-0.32-0.78-0.78-1.58-1.37-2.39l0.98-0.46C362.79,160.2,363.26,160.98,363.58,161.73z M363.49,165.39l1.22,0.33
		c-0.29,2.33-0.8,3.93-1.54,4.78l-1.15-0.65C362.78,168.93,363.27,167.44,363.49,165.39z M372.6,163.71c-0.2,3.64-0.47,5.8-0.8,6.48
		c-0.07,0.13-0.14,0.23-0.2,0.3c-0.28,0.3-0.67,0.48-1.17,0.52c-0.68,0.03-1.33,0.03-1.96,0c-0.07-0.49-0.19-0.88-0.35-1.17
		c0.7,0.06,1.28,0.09,1.76,0.09c0.29-0.01,0.5-0.09,0.63-0.22c0.22-0.3,0.39-1.11,0.52-2.41l-0.78,0.33
		c-0.25-0.7-0.64-1.44-1.17-2.24l0.78-0.3c0.43,0.56,0.83,1.26,1.2,2.09c0.07-0.78,0.14-1.71,0.2-2.78h-7.26v-11.61h2.78
		c0.27-0.81,0.48-1.49,0.61-2.04l1.63,0.28c-0.09,0.22-0.34,0.8-0.76,1.76h3.37v6.48h-6.24v1.33h7.44v1.24h-7.44v1.3h7.24
		C372.62,163.14,372.61,163.33,372.6,163.71z M365.38,153.99v1.48h4.83v-1.48H365.38z M365.38,158.04h4.83v-1.48h-4.83V158.04z
		 M366.95,169.47l-1.02,0.15c0.01-1.04-0.12-2.26-0.39-3.65l0.98-0.13C366.8,167.12,366.95,168.33,366.95,169.47z M367.38,165.76
		l0.85-0.2c0.49,1.17,0.8,2.18,0.94,3.02l-0.91,0.24C368.15,168.04,367.86,167.02,367.38,165.76z"/>
	<path d="M379.14,167.36l2.02-0.67l0.22,1.35c-1,0.35-2.49,0.86-4.46,1.52c-0.96,0.32-1.65,0.55-2.07,0.7l-0.28-1.5
		c0.07-0.03,0.2-0.07,0.37-0.11c0.25-0.06,0.43-0.11,0.54-0.15v-8.96h1.15v8.61l1.26-0.39V157.3h1.24v3.72h1.74v1.33h-1.74V167.36z
		 M384.97,156.8h-2.54c0.01,6.46,0.27,10.15,0.76,11.07c0.06,0.09,0.12,0.14,0.17,0.15c0.28,0,0.48-0.94,0.61-2.83
		c0-0.04,0-0.08,0-0.11c0.2,0.23,0.55,0.51,1.04,0.83c-0.33,2.64-0.9,3.95-1.7,3.93c-0.94,0.03-1.58-1.57-1.91-4.8
		c-0.19-1.9-0.3-4.64-0.35-8.24h-6.15v-1.37h6.15c-0.01-0.96-0.02-2.43-0.02-4.44h1.41c-0.03,2.09-0.04,3.57-0.04,4.44h2.57V156.8z
		 M380.34,152.3v1.39h-4.5v-1.39H380.34z M385.19,154.28l-1.11,0.52c-0.23-0.91-0.67-1.86-1.3-2.85l1.02-0.46
		C384.46,152.44,384.92,153.36,385.19,154.28z M385.9,170.54l-1.09-0.61c0.51-0.91,0.83-2.41,0.98-4.48l1.15,0.26
		C386.76,168.07,386.41,169.68,385.9,170.54z M395.03,161.8h-7.85v1.33h7.65c0,0.01-0.01,0.22-0.04,0.63
		c-0.19,3.55-0.45,5.68-0.78,6.39c-0.09,0.16-0.17,0.28-0.24,0.37c-0.29,0.32-0.7,0.5-1.22,0.54c-0.62,0.03-1.37,0.02-2.24-0.02
		c-0.04-0.49-0.16-0.91-0.35-1.24c0.74,0.07,1.41,0.11,2,0.11c0.3-0.01,0.52-0.09,0.65-0.22c0.33-0.35,0.59-2.1,0.78-5.26
		c0-0.01,0-0.03,0-0.04h-7.7V152.8h2.5c0.26-0.77,0.45-1.46,0.57-2.07l1.76,0.3c-0.16,0.38-0.41,0.96-0.76,1.76h3.93v6.46h-6.52
		v1.33h7.85V161.8z M392.21,153.99h-5.02v1.48h5.02V153.99z M387.19,158.06h5.02v-1.5h-5.02V158.06z M387.58,165.82l1-0.13
		c0.26,1.38,0.39,2.59,0.39,3.63l-1.04,0.13C387.97,168.38,387.85,167.17,387.58,165.82z M389.38,165.6l0.89-0.22
		c0.51,1.2,0.83,2.22,0.96,3.04l-0.96,0.24C390.16,167.83,389.86,166.81,389.38,165.6z M393.16,167.21l-0.87,0.35
		c-0.25-0.74-0.65-1.52-1.2-2.35l0.83-0.33C392.52,165.74,392.93,166.52,393.16,167.21z"/>
	<path d="M320.01,213.41h1.93v1.52h-20.11v-1.52h2l-0.37-12.48l1.3,0.33c0.84-0.41,1.66-0.86,2.46-1.37l0.93,1h7.57v12.52h2.85
		c0.01-0.22,0.04-0.56,0.07-1.02c0.04-0.77,0.07-1.36,0.09-1.78h-2.37v-1.39h2.41c0.06-1.16,0.09-2.07,0.11-2.74h-2.48v-1.37h2.52
		c0-0.32,0.01-0.79,0.02-1.41c0.01-0.64,0.02-1.11,0.02-1.41h-2.72v-1.39h4.15C320.34,205.68,320.21,209.86,320.01,213.41z
		 M308.22,215.3l1.59,1c-1.72,1.33-3.76,2.54-6.11,3.61c-0.16,0.07-0.3,0.14-0.44,0.2c-0.52-0.52-0.95-0.91-1.28-1.17
		c2.14-0.88,3.98-1.9,5.5-3.04C307.78,215.68,308.02,215.49,308.22,215.3z M305.18,210.6l0.09,2.8h2.83V201.3
		c-1.01,0.48-2.07,0.91-3.15,1.3l0.09,2.5h2.39v1.37h-2.35l0.07,2.74h2.26v1.39H305.18z M314.49,202.21h-5.15v11.2h5.15V202.21z
		 M313.79,203.64v1.13h-3.78v-1.13H313.79z M310.22,211.34v-5.09h3.35v5.09H310.22z M311.07,207.32v2.96h1.63v-2.96H311.07z
		 M313.9,216.43l1.17-1.11c2.61,1.2,4.87,2.42,6.78,3.65l-1.54,1.15C318.49,218.83,316.35,217.6,313.9,216.43z"/>
	<path d="M329.73,212.21v4.76c1.23,0.62,3.14,0.93,5.74,0.93c5.06,0,8.04-0.01,8.94-0.04c-0.33,0.51-0.57,1.05-0.7,1.63h-8.24
		c-2.96,0-5.12-0.36-6.48-1.09c-1.16-0.64-2.08-1.62-2.76-2.93c-0.3,1.83-0.8,3.35-1.5,4.57c-0.29-0.39-0.63-0.7-1.02-0.94
		c-0.03-0.01-0.05-0.02-0.06-0.02c1.12-2,1.63-5.09,1.54-9.28c0-0.06,0-0.1,0-0.13l1.39,0.06c0.03,1.12,0.01,2.08-0.04,2.89
		c0.42,1.41,1,2.5,1.74,3.28v-7.98h-4.07v-1.48h3.74v-2.61h-3.17v-1.43h3.17v-2.65h1.48v2.65h2.63v1.43h-2.63v2.61h3.04v1.48h-2.74
		v2.83h2.57v1.46H329.73z M332.99,213.91v-11.83h-1.26v-1.43h10.54v1.43h-4.04v2.11h4.76l0.26-0.04l0.85,0.26
		c-0.33,3.57-0.98,6.48-1.94,8.74c0.72,1.32,1.53,2.3,2.41,2.96c-0.41,0.32-0.73,0.69-0.98,1.11c-0.77-0.64-1.49-1.51-2.15-2.61
		c-0.61,1.03-1.22,1.83-1.85,2.41c-0.3-0.51-0.63-0.9-0.98-1.17c0.74-0.68,1.41-1.61,2.02-2.78c-0.84-1.91-1.46-4.12-1.87-6.63
		l1.15-0.24c0.3,1.88,0.78,3.62,1.41,5.22c0.59-1.64,1.01-3.59,1.26-5.87h-4.37v11.94h-1.35v-3.11c-2.14,0.54-3.91,0.96-5.3,1.26
		l-0.3-1.35c0.16-0.03,0.41-0.08,0.76-0.15C332.45,214.02,332.77,213.95,332.99,213.91z M336.88,204.71v-2.63h-2.57v2.63H336.88z
		 M336.88,208.8v-2.76h-2.57v2.76H336.88z M334.31,213.62l2.57-0.59v-2.96h-2.57V213.62z"/>
	<path d="M348.36,209.71c-0.61,0-1.04-0.28-1.3-0.83c-0.1-0.23-0.15-0.47-0.15-0.72c0-0.7,0.28-1.18,0.85-1.46
		c0.2-0.09,0.41-0.13,0.61-0.13c0.61,0,1.04,0.28,1.3,0.83c0.12,0.25,0.17,0.5,0.17,0.76c0,0.64-0.27,1.1-0.8,1.39
		C348.82,209.66,348.59,209.71,348.36,209.71z M348.36,218.67c-0.62,0-1.06-0.28-1.3-0.83c-0.1-0.22-0.15-0.45-0.15-0.7
		c0-0.67,0.27-1.14,0.8-1.43c0.22-0.1,0.44-0.15,0.65-0.15c0.58,0,1.01,0.27,1.3,0.8c0.12,0.25,0.17,0.51,0.17,0.78
		c0,0.67-0.29,1.13-0.87,1.39C348.76,218.62,348.56,218.67,348.36,218.67z"/>
	<path d="M359.1,201.04v15.28h-4.46v1.93h-1.48v-17.22H359.1z M357.6,202.49h-2.96v3.11h2.96V202.49z M354.64,207.01v3.13h2.96
		v-3.13H354.64z M354.64,214.84h2.96v-3.24h-2.96V214.84z M372.77,210.36h-2.22v3.26h1.74v1.39h-5.61v3.09h6.09v1.46h-13.61v-1.46
		h6.02v-3.09h-5.39v-1.39h1.7v-3.26h-2.09v-1.43h2.09v-3h-1.67v-1.39h5.37v-2.35c-1.9,0.14-3.5,0.24-4.8,0.28
		c-0.06-0.41-0.2-0.83-0.44-1.28c4.77-0.25,8.36-0.65,10.76-1.22l1.13,1.22c-1.61,0.36-3.33,0.64-5.15,0.83v2.52h5.59v1.39h-1.72v3
		h2.22V210.36z M362.86,205.93v3h2.33v-3H362.86z M362.86,213.62h2.33v-3.26h-2.33V213.62z M369.12,205.93h-2.43v3h2.43V205.93z
		 M369.12,213.62v-3.26h-2.43v3.26H369.12z"/>
	<path d="M388.97,218.49h3.48c0.45,0,0.73-0.14,0.85-0.41s0.2-0.88,0.26-1.83c0.33,0.23,0.8,0.4,1.39,0.5
		c-0.09,1.43-0.36,2.33-0.83,2.7c-0.33,0.25-0.83,0.37-1.5,0.37h-3.8c-1.25,0-2.03-0.2-2.35-0.59c-0.2-0.29-0.3-0.73-0.3-1.33v-1.67
		h-3.26c-0.46,1.28-1.39,2.21-2.78,2.8c-1.12,0.46-2.69,0.81-4.72,1.04c-0.14-0.43-0.39-0.86-0.74-1.28
		c2.85-0.22,4.74-0.7,5.65-1.44c0.39-0.3,0.69-0.68,0.89-1.13h-2.61v-7.26h12.44v7.26h-3.26v1.65c0,0.3,0.12,0.49,0.35,0.54
		C388.29,218.47,388.58,218.49,388.97,218.49z M376.99,207.91v2.02h-1.48v-3.17h2.13l-0.3-6.07l1.26,0.3
		c0.78-0.3,1.67-0.72,2.67-1.24l0.91,0.74c-0.7,0.42-1.8,0.88-3.33,1.39l0.04,0.8h2.93v1.02h-2.89l0.04,1h2.98v1.02h-2.94l0.07,1.02
		h3.8c-0.22-0.23-0.45-0.43-0.7-0.59c0.61-0.3,1.25-0.7,1.94-1.17c-0.45-0.3-0.85-0.55-1.2-0.74l0.72-0.65
		c0.32,0.17,0.75,0.43,1.28,0.76c0.44-0.39,0.79-0.78,1.07-1.15l1.02,0.28c-0.33,0.46-0.76,0.95-1.28,1.46
		c0.46,0.32,0.84,0.64,1.13,0.98l-0.74,0.72c-0.38-0.39-0.77-0.74-1.17-1.04c-0.75,0.55-1.32,0.93-1.7,1.15h7.33
		c0.01-0.13,0.04-0.47,0.06-1.02h-2.85v-1.02h2.93l0.04-1h-2.85v-1.02h2.89l0.04-0.98h-3.22v-1.11h4.74
		c-0.07,2.19-0.18,4.24-0.33,6.15h2.11v3.17h-1.52v-2.02H376.99z M380.16,209.99v1.06h9.26v-1.06H380.16z M380.16,212.01v1.11h9.26
		v-1.11H380.16z M380.16,214.08v1.15h9.26v-1.15H380.16z M386.58,202.38l-0.74,0.72c-0.23-0.26-0.58-0.57-1.04-0.91
		c-0.75,0.55-1.32,0.93-1.7,1.13c-0.26-0.33-0.54-0.59-0.83-0.76c0.46-0.22,1.03-0.54,1.7-0.98c-0.36-0.25-0.72-0.46-1.07-0.65
		l0.72-0.65c0.26,0.15,0.65,0.37,1.15,0.67c0.41-0.36,0.73-0.72,0.98-1.07l1.02,0.28c-0.38,0.54-0.78,0.99-1.2,1.35
		C385.98,201.8,386.32,202.09,386.58,202.38z"/>
	<path d="M397.08,218.38v-1.22l8.61-13.37h-7.83v-1.74h10.37v1.22l-8.61,13.35h8.7v1.76H397.08z"/>
	<path d="M410.16,218.38v-1.09l6.37-9.35h-5.67v-1.65h8.22v1.09l-6.35,9.35h6.59v1.65H410.16z"/>
	<path d="M421.03,218.38v-1.22l8.61-13.37h-7.83v-1.74h10.37v1.22l-8.61,13.35h8.7v1.76H421.03z"/>
</g>
<polygon class="st0" points="652.14,115.88 652.14,228.49 665.12,228.49 665.12,282.83 639.87,282.83 617.49,257.53 339.79,257.53 
	312.17,273.95 297.25,282.83 19.46,282.83 19.46,18.63 582.32,18.63 665.12,77.24 665.12,115.88 "/>
<g>
	<polyline class="st0" points="493.83,209.9 493.83,221.14 502.49,221.14 	"/>
	<polyline class="st0" points="621.04,168.08 629.7,168.08 629.7,179.32 	"/>
	<polyline class="st0" points="629.7,209.9 629.7,221.14 621.04,221.14 	"/>
	<polyline class="st0" points="493.83,179.32 493.83,168.08 502.49,168.08 	"/>
</g>
<rect x="346.47" y="263.13" class="st1" width="4.59" height="10.83"/>
<rect x="358.87" y="263.13" class="st1" width="4.59" height="10.83"/>
<rect x="371.27" y="263.13" class="st1" width="4.59" height="10.83"/>
<rect x="383.68" y="263.13" class="st1" width="4.59" height="10.83"/>
<rect x="396.08" y="263.13" class="st1" width="4.59" height="10.83"/>
<rect x="408.48" y="263.13" class="st1" width="4.59" height="10.83"/>
<rect x="420.27" y="263.13" class="st1" width="4.59" height="10.83"/>
<rect x="432.07" y="263.13" class="st1" width="4.59" height="10.83"/>
<polygon class="st0" points="632.02,273.95 617.49,257.53 339.79,257.53 312.17,273.95 445.89,273.95 445.89,263.13 452.39,263.13 
	452.39,273.95 "/>
<polyline class="st0" points="19.46,267.67 283.57,267.34 326.11,242.05 665.12,242.05 "/>
</svg>
