<?xml version="1.0" encoding="utf-8"?>
<!-- Generator: Adobe Illustrator 26.5.0, SVG Export Plug-In . SVG Version: 6.00 Build 0)  -->
<svg version="1.1" id="圖層_1" xmlns="http://www.w3.org/2000/svg" xmlns:xlink="http://www.w3.org/1999/xlink" x="0px" y="0px"
	 viewBox="0 0 310.34 36.7" style="enable-background:new 0 0 310.34 36.7;" xml:space="preserve">
<style type="text/css">
	.st0{fill:#FFFFFF;stroke:#1A1A1A;stroke-miterlimit:10;}
	.st1{fill:none;stroke:#1A1A1A;stroke-miterlimit:10;}
	.st2{fill:#1A1A1A;}
</style>
<g>
	<path class="st0" d="M301.86,6.76h-55.62v26.11h56.38c1.15-1.15,1.8-1.8,2.96-2.96V10.47C304.12,9.02,303.31,8.21,301.86,6.76z"/>
	<rect x="185.36" y="6.76" class="st0" width="57.81" height="26.11"/>
	<rect x="63.61" y="6.76" class="st0" width="57.81" height="26.11"/>
	<rect x="124.49" y="6.76" class="st0" width="57.81" height="26.11"/>
	<rect x="2.74" y="6.76" class="st0" width="57.81" height="26.11"/>
	<rect x="300.98" y="12.83" class="st0" width="4.6" height="11.55"/>
	<rect x="291.32" y="12.83" class="st0" width="4.6" height="6.7"/>
	<rect x="281.49" y="12.83" class="st0" width="4.6" height="6.7"/>
	<rect x="271.66" y="12.83" class="st0" width="4.6" height="6.7"/>
	<rect x="249.02" y="12.83" class="st0" width="4.6" height="6.7"/>
	<line class="st1" x1="295.91" y1="24.38" x2="2.66" y2="24.38"/>
	<rect x="261.59" y="17.68" class="st0" width="5.49" height="15.19"/>
	<rect x="256.1" y="17.68" class="st0" width="5.49" height="15.19"/>
	<rect x="233.11" y="12.83" class="st0" width="4.6" height="6.7"/>
	<rect x="223.28" y="12.83" class="st0" width="4.6" height="6.7"/>
	<rect x="213.45" y="12.83" class="st0" width="4.6" height="6.7"/>
	<rect x="190.82" y="12.83" class="st0" width="4.6" height="6.7"/>
	<rect x="203.39" y="17.68" class="st0" width="5.49" height="15.19"/>
	<rect x="197.9" y="17.68" class="st0" width="5.49" height="15.19"/>
	<rect x="174.91" y="12.83" class="st0" width="4.6" height="6.7"/>
	<rect x="165.08" y="12.83" class="st0" width="4.6" height="6.7"/>
	<rect x="155.25" y="12.83" class="st0" width="4.6" height="6.7"/>
	<rect x="132.61" y="12.83" class="st0" width="4.6" height="6.7"/>
	<rect x="145.19" y="17.68" class="st0" width="5.49" height="15.19"/>
	<rect x="139.7" y="17.68" class="st0" width="5.49" height="15.19"/>
	<rect x="111.04" y="12.83" class="st0" width="4.6" height="6.7"/>
	<rect x="101.21" y="12.83" class="st0" width="4.6" height="6.7"/>
	<rect x="91.38" y="12.83" class="st0" width="4.6" height="6.7"/>
	<rect x="68.74" y="12.83" class="st0" width="4.6" height="6.7"/>
	<rect x="81.32" y="17.68" class="st0" width="5.49" height="15.19"/>
	<rect x="75.83" y="17.68" class="st0" width="5.49" height="15.19"/>
	<rect x="50" y="12.83" class="st0" width="4.6" height="6.7"/>
	<rect x="40.17" y="12.83" class="st0" width="4.6" height="6.7"/>
	<rect x="30.34" y="12.83" class="st0" width="4.6" height="6.7"/>
	<rect x="7.71" y="12.83" class="st0" width="4.6" height="6.7"/>
	<rect x="20.28" y="17.68" class="st0" width="5.49" height="15.19"/>
	<rect x="14.79" y="17.68" class="st0" width="5.49" height="15.19"/>
	<ellipse class="st2" cx="303.14" cy="27.66" rx="0.98" ry="1.24"/>
	<rect x="250.27" y="3.64" class="st2" width="17.15" height="3.28"/>
	<polygon class="st2" points="296.85,6.76 278.21,6.76 280.38,2.66 294.68,2.66 	"/>
	<rect x="190.98" y="3.64" class="st2" width="17.15" height="3.28"/>
	<polygon class="st2" points="237.55,6.76 218.91,6.76 221.08,2.66 235.38,2.66 	"/>
	<rect x="131.68" y="3.64" class="st2" width="17.15" height="3.28"/>
	<polygon class="st2" points="178.25,6.76 159.61,6.76 161.78,2.66 176.08,2.66 	"/>
	<rect x="69.54" y="3.64" class="st2" width="17.15" height="3.28"/>
	<polygon class="st2" points="116.12,6.76 97.48,6.76 99.65,2.66 113.95,2.66 	"/>
	<rect x="10.25" y="3.64" class="st2" width="17.15" height="3.28"/>
	<polygon class="st2" points="56.82,6.76 38.18,6.76 40.35,2.66 54.65,2.66 	"/>
</g>
</svg>
